<svg width="250" height="37" viewBox="0 0 250 37" fill="none" xmlns="http://www.w3.org/2000/svg">
<g clip-path="url(#clip0_1277_2848)">
<path d="M201.035 7.37966V29.59H206.027V20.5023H216.651V29.59H221.642V7.37966H216.651V16.5037H206.027V7.37966H201.035ZM192.452 29.59H197.708L187.953 7.37966H182.887L172.943 29.59H177.971L179.975 25.1189H190.562L192.452 29.59ZM181.488 21.4111L185.344 12.5052L188.974 21.4111H181.488ZM232.834 20.6113H235.934L243.572 29.5537H250L239.791 18.0668L248.714 7.3433H243.005L235.594 16.8672H232.834V7.3433H227.843V29.5537H232.834V20.6113ZM156.457 16.0312V11.0874H169.502V7.37966H151.466V29.59H161.864C167.687 29.59 171.052 27.0455 171.052 22.6106C171.052 18.3576 168.027 16.0312 162.507 16.0312H156.457ZM156.457 25.8822V19.739H161.675C164.851 19.739 166.326 20.7568 166.326 22.8288C166.326 24.9008 164.776 25.9186 161.675 25.9186H156.457V25.8822ZM111.872 11.1706L117.105 7.47639H99.6122V29.712H117.105V26.0002H104.607V20.3181H115.257V16.6064H104.607V11.1706H111.872ZM86.4197 16.149H80.345V11.1882H90.0427L95.2755 7.47639H75.3679V29.712H85.7792C91.6345 29.712 94.9649 27.1612 94.9649 22.7106C94.9649 18.471 91.9275 16.149 86.4197 16.149ZM85.5416 26.0002H80.345V19.8432H85.5416C88.7071 19.8432 90.1889 20.8811 90.1889 22.9216C90.1889 25.0326 88.6153 26.0002 85.5416 26.0002ZM131.268 7.45899H121.754V29.7121H126.749V23.4144H131.268C137.343 23.4144 141.113 20.3359 141.113 15.4279C141.113 10.5199 137.343 7.45899 131.268 7.45899ZM131.158 19.7027H126.73V11.1708H131.158C134.361 11.1708 136.117 12.6836 136.117 15.4279C136.117 18.1897 134.361 19.7027 131.158 19.7027ZM66.7869 24.8921C65.5063 25.5782 64.024 25.93 62.469 25.93C57.9674 25.93 54.7107 22.8339 54.7107 18.5944C54.7107 14.3549 57.9674 11.2588 62.469 11.2588C64.1708 11.2588 65.7076 11.7162 67.0069 12.6134L70.5748 10.0802L70.3367 9.86903C68.2512 8.09233 65.4514 7.17755 62.2491 7.17755C58.7911 7.17755 55.6438 8.30346 53.3933 10.344C51.1243 12.4022 49.8801 15.2872 49.8801 18.4713C49.8801 21.6729 51.1243 24.5931 53.3751 26.704C55.6256 28.8326 58.7729 29.9936 62.2128 29.9936C65.8176 29.9936 68.9462 28.7798 71.0873 26.5809C69.4405 25.4198 67.8487 24.294 67.8487 24.294L66.7869 24.8921ZM34.4455 7.21355C35.3549 8.3429 36.1128 9.58155 36.757 10.8931L19.2502 23.3159L11.8989 18.8714V13.5525L19.2124 17.9606L34.4455 7.21355Z" fill="#21A038"/>
<path d="M4.43345 18.507C4.43345 18.252 4.43345 18.0335 4.47132 17.7784L0.0379149 17.5598C0.0379149 17.8513 9.34119e-10 18.1792 9.34119e-10 18.4706C-5.18663e-05 23.5709 2.15985 28.1976 5.64606 31.5492L8.79118 28.5255C6.10078 25.9754 4.43345 22.4416 4.43345 18.507Z" fill="url(#paint0_linear_1277_2848)"/>
<path d="M19.2116 4.29868C19.4768 4.29868 19.7042 4.29868 19.9694 4.33508L20.1968 0.0727481C19.8936 0.0727481 19.5526 0.0363464 19.2494 0.0363464C13.9444 0.0363464 9.13196 2.11283 5.64575 5.46448L8.79088 8.4882C11.4434 5.90164 15.157 4.29868 19.2116 4.29868Z" fill="url(#paint1_linear_1277_2848)"/>
<path d="M19.2123 32.7145C18.947 32.7145 18.7197 32.7145 18.4544 32.6781L18.2271 36.9405C18.5302 36.9405 18.8712 36.9769 19.1744 36.9769C24.4794 36.9769 29.2919 34.9003 32.7781 31.5487L29.633 28.525C26.9804 31.148 23.3047 32.7145 19.2123 32.7145Z" fill="url(#paint2_linear_1277_2848)"/>
<path d="M27.5479 6.77629L31.2994 4.11687C28.0027 1.56671 23.7965 0.000198364 19.2114 0.000198364V4.26258C22.3187 4.29898 25.1986 5.20977 27.5479 6.77629Z" fill="url(#paint3_linear_1277_2848)"/>
<path d="M38.4619 18.5067C38.4619 17.3773 38.3482 16.2844 38.1588 15.1915L34.0284 18.1424V18.5067C34.0284 22.6962 32.1337 26.4486 29.1401 29.0352L32.1337 32.2046C35.9989 28.853 38.4619 23.9349 38.4619 18.5067Z" fill="#21A038"/>
<path d="M19.2122 32.7152C14.8544 32.7152 10.9514 30.8937 8.26104 28.0157L4.96436 30.8937C8.48837 34.6461 13.5661 36.9776 19.2122 36.9776V32.7152Z" fill="url(#paint4_linear_1277_2848)"/>
<path d="M9.32173 7.97859L6.32816 4.80916C2.42516 8.1971 0 13.0789 0 18.507H4.43351C4.43351 14.3539 6.32817 10.5651 9.32173 7.97854V7.97859Z" fill="url(#paint5_linear_1277_2848)"/>
</g>
<defs>
<linearGradient id="paint0_linear_1277_2848" x1="6.54741" y1="31.0341" x2="2.02366" y2="17.4328" gradientUnits="userSpaceOnUse">
<stop offset="0.144" stop-color="#F2E913"/>
<stop offset="0.304" stop-color="#E7E518"/>
<stop offset="0.582" stop-color="#CADB26"/>
<stop offset="0.891" stop-color="#A3CD39"/>
</linearGradient>
<linearGradient id="paint1_linear_1277_2848" x1="6.91308" y1="6.21709" x2="19.2882" y2="1.3118" gradientUnits="userSpaceOnUse">
<stop offset="0.059" stop-color="#0FA8E0"/>
<stop offset="0.538" stop-color="#0099F9"/>
<stop offset="0.923" stop-color="#0291EB"/>
</linearGradient>
<linearGradient id="paint2_linear_1277_2848" x1="17.9693" y1="34.3833" x2="32.0527" y2="31.0725" gradientUnits="userSpaceOnUse">
<stop offset="0.123" stop-color="#A3CD39"/>
<stop offset="0.285" stop-color="#86C339"/>
<stop offset="0.869" stop-color="#21A038"/>
</linearGradient>
<linearGradient id="paint3_linear_1277_2848" x1="18.2961" y1="1.45173" x2="30.2996" y2="5.30403" gradientUnits="userSpaceOnUse">
<stop offset="0.057" stop-color="#0291EB"/>
<stop offset="0.79" stop-color="#0C8ACB"/>
</linearGradient>
<linearGradient id="paint4_linear_1277_2848" x1="6.08635" y1="30.376" x2="19.1146" y2="35.4392" gradientUnits="userSpaceOnUse">
<stop offset="0.132" stop-color="#F2E913"/>
<stop offset="0.298" stop-color="#EBE716"/>
<stop offset="0.531" stop-color="#D9E01F"/>
<stop offset="0.802" stop-color="#BBD62D"/>
<stop offset="0.983" stop-color="#A3CD39"/>
</linearGradient>
<linearGradient id="paint5_linear_1277_2848" x1="1.6611" y1="19.0212" x2="6.59137" y2="5.68087" gradientUnits="userSpaceOnUse">
<stop offset="0.07" stop-color="#A3CD39"/>
<stop offset="0.26" stop-color="#81C55F"/>
<stop offset="0.922" stop-color="#0FA8E0"/>
</linearGradient>
<clipPath id="clip0_1277_2848">
<rect width="250" height="37" fill="white"/>
</clipPath>
</defs>
</svg>
