<svg width="54" height="8" viewBox="0 0 54 8" fill="none" xmlns="http://www.w3.org/2000/svg">
<g clip-path="url(#clip0_1277_2519)">
<path d="M43.4236 1.59558V6.39782H44.5017V4.4329H46.7966V6.39782H47.8747V1.59558H46.7966V3.56835H44.5017V1.59558H43.4236ZM41.5697 6.39782H42.7049L40.5978 1.59558H39.5035L37.3556 6.39782H38.4417L38.8746 5.43108H41.1613L41.5697 6.39782ZM39.2013 4.6294L40.0343 2.70379L40.8184 4.6294H39.2013ZM50.292 4.45648H50.9618L52.6116 6.38996H53.9999L51.7948 3.90632L53.7223 1.58772H52.489L50.8883 3.64694H50.292V1.58772H49.2141V6.38996H50.292V4.45648ZM33.7947 3.46618V2.39726H36.6123V1.59558H32.7167V6.39782H34.9627C36.2203 6.39782 36.9472 5.84764 36.9472 4.88876C36.9472 3.9692 36.2938 3.46618 35.1015 3.46618H33.7947ZM33.7947 5.59614V4.26786H34.9218C35.6079 4.26786 35.9264 4.48792 35.9264 4.93592C35.9264 5.38392 35.5915 5.604 34.9218 5.604H33.7947V5.59614ZM24.1643 2.41524L25.2946 1.61649H21.5162V6.42419H25.2946V5.62164H22.5952V4.39309H24.8955V3.59054H22.5952V2.41524H24.1643ZM18.6666 3.49164H17.3545V2.41904H19.4492L20.5795 1.61649H16.2794V6.42419H18.5283C19.793 6.42419 20.5124 5.87267 20.5124 4.91037C20.5124 3.99371 19.8563 3.49164 18.6666 3.49164ZM18.477 5.62164H17.3545V4.29039H18.477C19.1607 4.29039 19.4808 4.5148 19.4808 4.95601C19.4808 5.41244 19.1409 5.62164 18.477 5.62164ZM28.3539 1.61273H26.2988V6.42423H27.3777V5.06255H28.3539C29.6661 5.06255 30.4803 4.39693 30.4803 3.33574C30.4803 2.27454 29.6661 1.61273 28.3539 1.61273ZM28.3302 4.26001H27.3737V2.41529H28.3302C29.0219 2.41529 29.4013 2.74238 29.4013 3.33574C29.4013 3.93289 29.0219 4.26001 28.3302 4.26001ZM14.426 5.38206C14.1493 5.53039 13.8292 5.60647 13.4933 5.60647C12.5209 5.60647 11.8175 4.93704 11.8175 4.0204C11.8175 3.10374 12.5209 2.43431 13.4933 2.43431C13.8609 2.43431 14.1928 2.53321 14.4735 2.72719L15.2441 2.17948L15.1927 2.13382C14.7422 1.74967 14.1375 1.55188 13.4458 1.55188C12.6989 1.55188 12.019 1.79532 11.5329 2.23653C11.0428 2.68154 10.7741 3.30532 10.7741 3.99377C10.7741 4.68602 11.0428 5.3174 11.529 5.77382C12.0151 6.23406 12.6949 6.48509 13.4379 6.48509C14.2166 6.48509 14.8924 6.22264 15.3548 5.7472C14.9991 5.49616 14.6553 5.25274 14.6553 5.25274L14.426 5.38206ZM7.44019 1.55966C7.63663 1.80385 7.80034 2.07166 7.93948 2.35523L4.15802 5.04126L2.57014 4.08028V2.93025L4.14985 3.88335L7.44019 1.55966Z" fill="#21A038"/>
<path d="M0.957641 4.00155C0.957641 3.94641 0.957641 3.89916 0.96582 3.84401L0.00820488 3.79675C0.00820488 3.85977 1.5259e-05 3.93066 1.5259e-05 3.99368C4.05567e-06 5.09644 0.466544 6.09681 1.21956 6.82149L1.89891 6.16771C1.31778 5.61632 0.957641 4.85226 0.957641 4.00155Z" fill="url(#paint0_linear_1277_2519)"/>
<path d="M4.14968 0.929397C4.20698 0.929397 4.25608 0.929397 4.31338 0.937268L4.36249 0.0156831C4.29701 0.0156831 4.22335 0.0078125 4.15786 0.0078125C3.01198 0.0078125 1.97249 0.456783 1.21947 1.18146L1.89881 1.83524C2.47176 1.27599 3.27389 0.929397 4.14968 0.929397Z" fill="url(#paint1_linear_1277_2519)"/>
<path d="M4.14985 7.07345C4.09256 7.07345 4.04345 7.07345 3.98615 7.06558L3.93704 7.98717C4.00253 7.98717 4.07619 7.99504 4.14167 7.99504C5.28756 7.99504 6.32705 7.54606 7.08007 6.82139L6.40072 6.1676C5.82777 6.73474 5.03382 7.07345 4.14985 7.07345Z" fill="url(#paint2_linear_1277_2519)"/>
<path d="M5.95035 1.4651L6.76066 0.890092C6.04857 0.338706 5.14003 0 4.14966 0V0.921596C4.82083 0.929466 5.44288 1.12639 5.95035 1.4651Z" fill="url(#paint3_linear_1277_2519)"/>
<path d="M8.3078 4.00147C8.3078 3.75728 8.28324 3.52097 8.24232 3.28467L7.35015 3.92269V4.00147C7.35015 4.90731 6.94091 5.71863 6.2943 6.2779L6.94091 6.96318C7.77578 6.23851 8.3078 5.17513 8.3078 4.00147Z" fill="#21A038"/>
<path d="M4.14986 7.07361C3.20859 7.07361 2.36554 6.67977 1.78441 6.0575L1.07233 6.67977C1.83351 7.49109 2.93031 7.99521 4.14986 7.99521V7.07361Z" fill="url(#paint4_linear_1277_2519)"/>
<path d="M2.01349 1.72508L1.36688 1.03979C0.523834 1.77232 0 2.82784 0 4.0015H0.957637C0.957637 3.10353 1.36688 2.28432 2.01349 1.72507V1.72508Z" fill="url(#paint5_linear_1277_2519)"/>
</g>
<defs>
<linearGradient id="paint0_linear_1277_2519" x1="1.41425" y1="6.71011" x2="0.435364" y2="3.76988" gradientUnits="userSpaceOnUse">
<stop offset="0.144" stop-color="#F2E913"/>
<stop offset="0.304" stop-color="#E7E518"/>
<stop offset="0.582" stop-color="#CADB26"/>
<stop offset="0.891" stop-color="#A3CD39"/>
</linearGradient>
<linearGradient id="paint1_linear_1277_2519" x1="1.49321" y1="1.34419" x2="4.16697" y2="0.285419" gradientUnits="userSpaceOnUse">
<stop offset="0.059" stop-color="#0FA8E0"/>
<stop offset="0.538" stop-color="#0099F9"/>
<stop offset="0.923" stop-color="#0291EB"/>
</linearGradient>
<linearGradient id="paint2_linear_1277_2519" x1="3.88136" y1="7.43428" x2="6.92371" y2="6.71977" gradientUnits="userSpaceOnUse">
<stop offset="0.123" stop-color="#A3CD39"/>
<stop offset="0.285" stop-color="#86C339"/>
<stop offset="0.869" stop-color="#21A038"/>
</linearGradient>
<linearGradient id="paint3_linear_1277_2519" x1="3.95195" y1="0.313844" x2="6.54519" y2="1.14526" gradientUnits="userSpaceOnUse">
<stop offset="0.057" stop-color="#0291EB"/>
<stop offset="0.79" stop-color="#0C8ACB"/>
</linearGradient>
<linearGradient id="paint4_linear_1277_2519" x1="1.31468" y1="6.56783" x2="4.12952" y2="7.66068" gradientUnits="userSpaceOnUse">
<stop offset="0.132" stop-color="#F2E913"/>
<stop offset="0.298" stop-color="#EBE716"/>
<stop offset="0.531" stop-color="#D9E01F"/>
<stop offset="0.802" stop-color="#BBD62D"/>
<stop offset="0.983" stop-color="#A3CD39"/>
</linearGradient>
<linearGradient id="paint5_linear_1277_2519" x1="0.358798" y1="4.11267" x2="1.42561" y2="1.22897" gradientUnits="userSpaceOnUse">
<stop offset="0.07" stop-color="#A3CD39"/>
<stop offset="0.26" stop-color="#81C55F"/>
<stop offset="0.922" stop-color="#0FA8E0"/>
</linearGradient>
<clipPath id="clip0_1277_2519">
<rect width="54" height="8" fill="white"/>
</clipPath>
</defs>
</svg>
