<svg width="315" height="51" viewBox="0 0 315 51" fill="none" xmlns="http://www.w3.org/2000/svg">
<path d="M16.2423 50.9472H0.121094C0.121094 50.9472 17.8181 1.88219 21.5756 0.91469C25.3332 -0.0528138 31.515 -0.0528494 34.5453 0.91469C37.5756 1.88223 42.4241 26.3456 42.4241 26.3456C42.4241 26.3456 50.4241 2.15862 54.1817 0.91469C57.9393 -0.329241 65.3332 -0.280307 67.8787 0.91469C70.4241 2.10969 79.9999 50.9472 79.9999 50.9472H64.8484L58.909 25.5163L48.4847 50.9472H32.7272L26.5453 25.5163L16.2423 50.9472Z" fill="#252525"/>
<path d="M26.5455 25.7071C26.5455 25.7071 22.303 3.31687 21.5758 0.967285C17.4545 2.21112 0 50.9997 0 50.9997H16.2424L26.5455 25.7071Z" fill="url(#paint0_linear_1277_76)"/>
<path d="M58.9092 25.4307C58.9092 25.4307 66.788 2.21114 68.0001 0.967285C70.4243 2.48761 80.0001 50.9998 80.0001 50.9998H64.8486L58.9092 25.4307Z" fill="url(#paint1_linear_1277_76)"/>
<path d="M109.29 35.77C108.61 35.77 108.09 35.58 107.73 35.2C107.37 34.82 107.19 34.29 107.19 33.61V16.24C107.19 15.56 107.38 15.03 107.76 14.65C108.16 14.27 108.7 14.08 109.38 14.08C109.98 14.08 110.45 14.2 110.79 14.44C111.15 14.66 111.48 15.05 111.78 15.61L118.71 28.27H117.69L124.62 15.61C124.92 15.05 125.24 14.66 125.58 14.44C125.94 14.2 126.41 14.08 126.99 14.08C127.67 14.08 128.19 14.27 128.55 14.65C128.93 15.03 129.12 15.56 129.12 16.24V33.61C129.12 34.29 128.94 34.82 128.58 35.2C128.22 35.58 127.7 35.77 127.02 35.77C126.34 35.77 125.81 35.58 125.43 35.2C125.07 34.82 124.89 34.29 124.89 33.61V21.46H125.55L119.97 31.45C119.73 31.83 119.47 32.12 119.19 32.32C118.93 32.5 118.58 32.59 118.14 32.59C117.7 32.59 117.34 32.49 117.06 32.29C116.78 32.09 116.53 31.81 116.31 31.45L110.67 21.43H111.39V33.61C111.39 34.29 111.21 34.82 110.85 35.2C110.51 35.58 109.99 35.77 109.29 35.77ZM137.999 35.83C136.919 35.83 135.949 35.62 135.089 35.2C134.229 34.78 133.559 34.21 133.079 33.49C132.599 32.77 132.359 31.96 132.359 31.06C132.359 29.98 132.639 29.13 133.199 28.51C133.759 27.87 134.669 27.42 135.929 27.16C137.189 26.88 138.859 26.74 140.939 26.74H142.529V29.08H140.969C139.949 29.08 139.119 29.14 138.479 29.26C137.859 29.36 137.409 29.54 137.129 29.8C136.869 30.06 136.739 30.42 136.739 30.88C136.739 31.44 136.929 31.9 137.309 32.26C137.709 32.62 138.279 32.8 139.019 32.8C139.599 32.8 140.109 32.67 140.549 32.41C141.009 32.13 141.369 31.76 141.629 31.3C141.889 30.82 142.019 30.28 142.019 29.68V26.23C142.019 25.35 141.819 24.73 141.419 24.37C141.019 23.99 140.339 23.8 139.379 23.8C138.839 23.8 138.249 23.87 137.609 24.01C136.989 24.13 136.299 24.34 135.539 24.64C135.099 24.84 134.709 24.89 134.369 24.79C134.029 24.67 133.769 24.47 133.589 24.19C133.409 23.89 133.319 23.57 133.319 23.23C133.319 22.87 133.419 22.53 133.619 22.21C133.819 21.87 134.149 21.62 134.609 21.46C135.549 21.08 136.429 20.82 137.249 20.68C138.089 20.54 138.859 20.47 139.559 20.47C141.099 20.47 142.359 20.7 143.339 21.16C144.339 21.6 145.089 22.29 145.589 23.23C146.089 24.15 146.339 25.34 146.339 26.8V33.46C146.339 34.2 146.159 34.77 145.799 35.17C145.439 35.57 144.919 35.77 144.239 35.77C143.559 35.77 143.029 35.57 142.649 35.17C142.289 34.77 142.109 34.2 142.109 33.46V32.35L142.319 32.53C142.199 33.21 141.939 33.8 141.539 34.3C141.159 34.78 140.669 35.16 140.069 35.44C139.469 35.7 138.779 35.83 137.999 35.83ZM152.059 35.77C151.299 35.77 150.719 35.57 150.319 35.17C149.919 34.77 149.719 34.2 149.719 33.46V22.81C149.719 22.07 149.909 21.51 150.289 21.13C150.689 20.73 151.239 20.53 151.939 20.53C152.659 20.53 153.209 20.73 153.589 21.13C153.969 21.51 154.159 22.07 154.159 22.81V24.37H153.859C154.099 23.17 154.629 22.24 155.449 21.58C156.269 20.92 157.329 20.55 158.629 20.47C159.129 20.43 159.509 20.56 159.769 20.86C160.049 21.14 160.199 21.61 160.219 22.27C160.259 22.89 160.129 23.38 159.829 23.74C159.549 24.1 159.069 24.32 158.389 24.4L157.699 24.46C156.559 24.56 155.709 24.89 155.149 25.45C154.609 26.01 154.339 26.82 154.339 27.88V33.46C154.339 34.2 154.139 34.77 153.739 35.17C153.359 35.57 152.799 35.77 152.059 35.77ZM164.362 35.77C163.622 35.77 163.052 35.57 162.652 35.17C162.272 34.77 162.082 34.2 162.082 33.46V16.39C162.082 15.63 162.272 15.06 162.652 14.68C163.052 14.28 163.622 14.08 164.362 14.08C165.082 14.08 165.632 14.28 166.012 14.68C166.412 15.06 166.612 15.63 166.612 16.39V26.86H166.672L171.022 22.03C171.462 21.53 171.862 21.16 172.222 20.92C172.602 20.66 173.102 20.53 173.722 20.53C174.342 20.53 174.812 20.69 175.132 21.01C175.472 21.33 175.642 21.72 175.642 22.18C175.662 22.62 175.472 23.07 175.072 23.53L170.482 28.66V26.95L175.582 32.83C175.962 33.29 176.122 33.75 176.062 34.21C176.022 34.67 175.822 35.05 175.462 35.35C175.102 35.63 174.642 35.77 174.082 35.77C173.402 35.77 172.852 35.64 172.432 35.38C172.032 35.12 171.622 34.72 171.202 34.18L166.672 29.14H166.612V33.46C166.612 35 165.862 35.77 164.362 35.77ZM186.226 35.83C184.486 35.83 182.986 35.52 181.726 34.9C180.486 34.26 179.526 33.37 178.846 32.23C178.186 31.07 177.856 29.71 177.856 28.15C177.856 26.63 178.176 25.3 178.816 24.16C179.456 23 180.346 22.1 181.486 21.46C182.646 20.8 183.956 20.47 185.416 20.47C186.476 20.47 187.436 20.65 188.296 21.01C189.156 21.35 189.896 21.85 190.516 22.51C191.136 23.15 191.606 23.94 191.926 24.88C192.246 25.8 192.406 26.83 192.406 27.97C192.406 28.35 192.286 28.64 192.046 28.84C191.806 29.02 191.456 29.11 190.996 29.11H181.576V26.77H189.136L188.656 27.19C188.656 26.37 188.536 25.69 188.296 25.15C188.056 24.59 187.706 24.17 187.246 23.89C186.806 23.61 186.256 23.47 185.596 23.47C184.856 23.47 184.226 23.64 183.706 23.98C183.186 24.32 182.786 24.81 182.506 25.45C182.226 26.09 182.086 26.86 182.086 27.76V28C182.086 29.52 182.436 30.64 183.136 31.36C183.856 32.08 184.916 32.44 186.316 32.44C186.796 32.44 187.346 32.38 187.966 32.26C188.586 32.14 189.166 31.95 189.706 31.69C190.166 31.47 190.576 31.4 190.936 31.48C191.296 31.54 191.576 31.7 191.776 31.96C191.976 32.22 192.086 32.52 192.106 32.86C192.146 33.2 192.076 33.54 191.896 33.88C191.716 34.2 191.416 34.47 190.996 34.69C190.316 35.07 189.546 35.35 188.686 35.53C187.846 35.73 187.026 35.83 186.226 35.83ZM202.183 35.83C200.803 35.83 199.643 35.6 198.703 35.14C197.783 34.68 197.093 34.01 196.633 33.13C196.193 32.25 195.973 31.14 195.973 29.8V24.16H194.713C194.153 24.16 193.713 24.01 193.393 23.71C193.093 23.41 192.943 23 192.943 22.48C192.943 21.92 193.093 21.5 193.393 21.22C193.713 20.92 194.153 20.77 194.713 20.77H195.973V18.49C195.973 17.73 196.173 17.16 196.573 16.78C196.973 16.38 197.533 16.18 198.253 16.18C198.993 16.18 199.553 16.38 199.933 16.78C200.313 17.16 200.503 17.73 200.503 18.49V20.77H203.353C203.913 20.77 204.343 20.92 204.643 21.22C204.943 21.5 205.093 21.92 205.093 22.48C205.093 23 204.943 23.41 204.643 23.71C204.343 24.01 203.913 24.16 203.353 24.16H200.503V29.62C200.503 30.46 200.693 31.09 201.073 31.51C201.473 31.93 202.103 32.14 202.963 32.14C203.263 32.14 203.543 32.11 203.803 32.05C204.063 31.99 204.303 31.95 204.523 31.93C204.803 31.91 205.033 32 205.213 32.2C205.393 32.38 205.483 32.79 205.483 33.43C205.483 33.91 205.403 34.33 205.243 34.69C205.083 35.05 204.803 35.31 204.403 35.47C204.143 35.57 203.783 35.65 203.323 35.71C202.883 35.79 202.503 35.83 202.183 35.83ZM218.011 35.77C217.331 35.77 216.811 35.58 216.451 35.2C216.091 34.82 215.911 34.29 215.911 33.61V16.24C215.911 15.56 216.101 15.03 216.481 14.65C216.881 14.27 217.421 14.08 218.101 14.08C218.701 14.08 219.171 14.2 219.511 14.44C219.871 14.66 220.201 15.05 220.501 15.61L227.431 28.27H226.411L233.341 15.61C233.641 15.05 233.961 14.66 234.301 14.44C234.661 14.2 235.131 14.08 235.711 14.08C236.391 14.08 236.911 14.27 237.271 14.65C237.651 15.03 237.841 15.56 237.841 16.24V33.61C237.841 34.29 237.661 34.82 237.301 35.2C236.941 35.58 236.421 35.77 235.741 35.77C235.061 35.77 234.531 35.58 234.151 35.2C233.791 34.82 233.611 34.29 233.611 33.61V21.46H234.271L228.691 31.45C228.451 31.83 228.191 32.12 227.911 32.32C227.651 32.5 227.301 32.59 226.861 32.59C226.421 32.59 226.061 32.49 225.781 32.29C225.501 32.09 225.251 31.81 225.031 31.45L219.391 21.43H220.111V33.61C220.111 34.29 219.931 34.82 219.571 35.2C219.231 35.58 218.711 35.77 218.011 35.77ZM248.82 35.83C247.24 35.83 245.86 35.52 244.68 34.9C243.52 34.28 242.62 33.39 241.98 32.23C241.34 31.07 241.02 29.7 241.02 28.12C241.02 26.94 241.2 25.88 241.56 24.94C241.92 24 242.44 23.2 243.12 22.54C243.82 21.86 244.65 21.35 245.61 21.01C246.57 20.65 247.64 20.47 248.82 20.47C250.4 20.47 251.77 20.78 252.93 21.4C254.11 22.02 255.02 22.9 255.66 24.04C256.32 25.18 256.65 26.54 256.65 28.12C256.65 29.32 256.46 30.39 256.08 31.33C255.72 32.27 255.2 33.08 254.52 33.76C253.84 34.44 253.01 34.96 252.03 35.32C251.07 35.66 250 35.83 248.82 35.83ZM248.82 32.44C249.48 32.44 250.05 32.28 250.53 31.96C251.01 31.64 251.39 31.17 251.67 30.55C251.95 29.91 252.09 29.1 252.09 28.12C252.09 26.66 251.79 25.59 251.19 24.91C250.59 24.21 249.8 23.86 248.82 23.86C248.18 23.86 247.61 24.01 247.11 24.31C246.63 24.61 246.25 25.08 245.97 25.72C245.71 26.34 245.58 27.14 245.58 28.12C245.58 29.58 245.88 30.67 246.48 31.39C247.08 32.09 247.86 32.44 248.82 32.44ZM261.686 35.77C260.946 35.77 260.376 35.57 259.976 35.17C259.596 34.77 259.406 34.2 259.406 33.46V22.81C259.406 22.07 259.596 21.51 259.976 21.13C260.376 20.73 260.926 20.53 261.626 20.53C262.346 20.53 262.896 20.73 263.276 21.13C263.656 21.51 263.846 22.07 263.846 22.81V24.52L263.516 23.53C263.976 22.55 264.656 21.8 265.556 21.28C266.476 20.74 267.516 20.47 268.676 20.47C269.856 20.47 270.826 20.7 271.586 21.16C272.346 21.6 272.916 22.28 273.296 23.2C273.676 24.1 273.866 25.25 273.866 26.65V33.46C273.866 34.2 273.666 34.77 273.266 35.17C272.886 35.57 272.326 35.77 271.586 35.77C270.866 35.77 270.306 35.57 269.906 35.17C269.526 34.77 269.336 34.2 269.336 33.46V26.86C269.336 25.84 269.146 25.11 268.766 24.67C268.406 24.21 267.846 23.98 267.086 23.98C266.126 23.98 265.356 24.28 264.776 24.88C264.216 25.48 263.936 26.28 263.936 27.28V33.46C263.936 35 263.186 35.77 261.686 35.77ZM282.888 35.83C282.008 35.83 281.098 35.75 280.158 35.59C279.238 35.43 278.398 35.16 277.638 34.78C277.238 34.58 276.948 34.33 276.768 34.03C276.608 33.71 276.538 33.39 276.558 33.07C276.578 32.75 276.678 32.46 276.858 32.2C277.058 31.94 277.308 31.77 277.608 31.69C277.928 31.59 278.278 31.62 278.658 31.78C279.478 32.12 280.228 32.36 280.908 32.5C281.588 32.64 282.258 32.71 282.918 32.71C283.778 32.71 284.398 32.58 284.778 32.32C285.178 32.04 285.378 31.68 285.378 31.24C285.378 30.84 285.248 30.54 284.988 30.34C284.728 30.14 284.348 30 283.848 29.92L280.698 29.35C279.458 29.13 278.498 28.68 277.818 28C277.158 27.3 276.828 26.41 276.828 25.33C276.828 24.33 277.108 23.47 277.668 22.75C278.228 22.01 278.998 21.45 279.978 21.07C280.978 20.67 282.108 20.47 283.368 20.47C284.268 20.47 285.098 20.55 285.858 20.71C286.618 20.87 287.348 21.13 288.048 21.49C288.408 21.67 288.658 21.91 288.798 22.21C288.958 22.51 289.008 22.82 288.948 23.14C288.908 23.46 288.788 23.75 288.588 24.01C288.388 24.27 288.128 24.44 287.808 24.52C287.508 24.6 287.158 24.56 286.758 24.4C286.118 24.1 285.528 23.89 284.988 23.77C284.448 23.63 283.928 23.56 283.428 23.56C282.528 23.56 281.878 23.71 281.478 24.01C281.078 24.29 280.878 24.65 280.878 25.09C280.878 25.43 280.988 25.72 281.208 25.96C281.448 26.18 281.808 26.33 282.288 26.41L285.438 26.98C286.738 27.2 287.728 27.64 288.408 28.3C289.088 28.94 289.428 29.82 289.428 30.94C289.428 32.46 288.828 33.66 287.628 34.54C286.448 35.4 284.868 35.83 282.888 35.83ZM299.097 35.83C297.717 35.83 296.557 35.6 295.617 35.14C294.697 34.68 294.007 34.01 293.547 33.13C293.107 32.25 292.887 31.14 292.887 29.8V24.16H291.627C291.067 24.16 290.627 24.01 290.307 23.71C290.007 23.41 289.857 23 289.857 22.48C289.857 21.92 290.007 21.5 290.307 21.22C290.627 20.92 291.067 20.77 291.627 20.77H292.887V18.49C292.887 17.73 293.087 17.16 293.487 16.78C293.887 16.38 294.447 16.18 295.167 16.18C295.907 16.18 296.467 16.38 296.847 16.78C297.227 17.16 297.417 17.73 297.417 18.49V20.77H300.267C300.827 20.77 301.257 20.92 301.557 21.22C301.857 21.5 302.007 21.92 302.007 22.48C302.007 23 301.857 23.41 301.557 23.71C301.257 24.01 300.827 24.16 300.267 24.16H297.417V29.62C297.417 30.46 297.607 31.09 297.987 31.51C298.387 31.93 299.017 32.14 299.877 32.14C300.177 32.14 300.457 32.11 300.717 32.05C300.977 31.99 301.217 31.95 301.437 31.93C301.717 31.91 301.947 32 302.127 32.2C302.307 32.38 302.397 32.79 302.397 33.43C302.397 33.91 302.317 34.33 302.157 34.69C301.997 35.05 301.717 35.31 301.317 35.47C301.057 35.57 300.697 35.65 300.237 35.71C299.797 35.79 299.417 35.83 299.097 35.83ZM306.336 35.77C305.576 35.77 304.996 35.57 304.596 35.17C304.196 34.77 303.996 34.2 303.996 33.46V22.81C303.996 22.07 304.186 21.51 304.566 21.13C304.966 20.73 305.516 20.53 306.216 20.53C306.936 20.53 307.486 20.73 307.866 21.13C308.246 21.51 308.436 22.07 308.436 22.81V24.37H308.136C308.376 23.17 308.906 22.24 309.726 21.58C310.546 20.92 311.606 20.55 312.906 20.47C313.406 20.43 313.786 20.56 314.046 20.86C314.326 21.14 314.476 21.61 314.496 22.27C314.536 22.89 314.406 23.38 314.106 23.74C313.826 24.1 313.346 24.32 312.666 24.4L311.976 24.46C310.836 24.56 309.986 24.89 309.426 25.45C308.886 26.01 308.616 26.82 308.616 27.88V33.46C308.616 34.2 308.416 34.77 308.016 35.17C307.636 35.57 307.076 35.77 306.336 35.77Z" fill="#2C2D36"/>
<defs>
<linearGradient id="paint0_linear_1277_76" x1="22.5455" y1="5.52819" x2="4.56765" y2="49.3541" gradientUnits="userSpaceOnUse">
<stop stop-color="#252525"/>
<stop offset="1" stop-color="#B0B0B0"/>
</linearGradient>
<linearGradient id="paint1_linear_1277_76" x1="65.2122" y1="7.46322" x2="76.6929" y2="50.1868" gradientUnits="userSpaceOnUse">
<stop stop-color="#252525"/>
<stop offset="1" stop-color="#B0B0B0"/>
</linearGradient>
</defs>
</svg>
