<svg width="14" height="14" viewBox="0 0 14 14" fill="none" xmlns="http://www.w3.org/2000/svg">
<path fill-rule="evenodd" clip-rule="evenodd" d="M1.89874 0.800044C1.60419 0.57913 1.18632 0.638826 0.965404 0.933378C0.74449 1.22793 0.804185 1.6458 1.09874 1.86671L2.23724 2.72059L4.06322 10.6332C4.20283 11.2382 4.74154 11.6667 5.36241 11.6667H11.1654C11.5336 11.6667 11.8321 11.3682 11.8321 11C11.8321 10.6319 11.5336 10.3334 11.1654 10.3334L5.36241 10.3334L5.1894 9.58365L10.0645 9.17739C11.6353 9.04648 12.8997 7.83314 13.0953 6.26902L13.3999 3.83205C13.4994 3.03625 12.8788 2.33334 12.0768 2.33334H3.5131C3.43099 2.06279 3.26468 1.8245 3.03724 1.65392L1.89874 0.800044ZM3.82394 3.66667L4.88646 8.27094L9.95376 7.84866C10.8963 7.77012 11.6549 7.04211 11.7722 6.10364L12.0768 3.66667H3.82394Z" fill="url(#paint0_linear_1180_161920)"/>
<path d="M6.16536 13C6.16536 13.3682 5.86689 13.6667 5.4987 13.6667C5.13051 13.6667 4.83203 13.3682 4.83203 13C4.83203 12.6318 5.13051 12.3333 5.4987 12.3333C5.86689 12.3333 6.16536 12.6318 6.16536 13Z" fill="url(#paint1_linear_1180_161920)"/>
<path d="M10.1654 13.6667C10.5336 13.6667 10.832 13.3682 10.832 13C10.832 12.6318 10.5336 12.3333 10.1654 12.3333C9.79718 12.3333 9.4987 12.6318 9.4987 13C9.4987 13.3682 9.79718 13.6667 10.1654 13.6667Z" fill="url(#paint2_linear_1180_161920)"/>
<defs>
<linearGradient id="paint0_linear_1180_161920" x1="1" y1="1.00066" x2="11.5" y2="13.0007" gradientUnits="userSpaceOnUse">
<stop offset="0.195903" stop-color="#965EEB"/>
<stop offset="0.363807" stop-color="#04E061"/>
<stop offset="0.576538" stop-color="#00AAFF"/>
<stop offset="0.822956" stop-color="#FF4053"/>
</linearGradient>
<linearGradient id="paint1_linear_1180_161920" x1="1" y1="1.00066" x2="11.5" y2="13.0007" gradientUnits="userSpaceOnUse">
<stop offset="0.195903" stop-color="#965EEB"/>
<stop offset="0.363807" stop-color="#04E061"/>
<stop offset="0.576538" stop-color="#00AAFF"/>
<stop offset="0.822956" stop-color="#FF4053"/>
</linearGradient>
<linearGradient id="paint2_linear_1180_161920" x1="1" y1="1.00066" x2="11.5" y2="13.0007" gradientUnits="userSpaceOnUse">
<stop offset="0.195903" stop-color="#965EEB"/>
<stop offset="0.363807" stop-color="#04E061"/>
<stop offset="0.576538" stop-color="#00AAFF"/>
<stop offset="0.822956" stop-color="#FF4053"/>
</linearGradient>
</defs>
</svg>
