<svg width="17" height="16" viewBox="0 0 17 16" fill="none" xmlns="http://www.w3.org/2000/svg">
<path fill-rule="evenodd" clip-rule="evenodd" d="M2.02729 8.86195C2.28764 8.6016 2.70975 8.6016 2.9701 8.86195L5.16536 11.0572C5.42571 11.3176 5.42571 11.7397 5.16536 12C4.90501 12.2604 4.48291 12.2604 4.22256 12L2.02729 9.80476C1.76694 9.54441 1.76694 9.1223 2.02729 8.86195Z" fill="#64CE7C"/>
<path d="M14.9895 3.78554C15.2392 3.515 15.2224 3.09322 14.9518 2.84349C14.6813 2.59375 14.2595 2.61062 14.0098 2.88117L6.46196 11.058C6.21222 11.3285 6.22909 11.7503 6.49964 12C6.77019 12.2498 7.19196 12.2329 7.4417 11.9623L12.0436 6.97697C12.172 6.83786 12.3903 6.8335 12.5242 6.96737L13.3616 7.80476C13.622 8.06511 14.0441 8.06511 14.3044 7.80476C14.5648 7.54441 14.5648 7.1223 14.3044 6.86195L13.4104 5.96799C13.2839 5.84148 13.2799 5.63766 13.4012 5.50619L14.9895 3.78554Z" fill="#64CE7C"/>
<path fill-rule="evenodd" clip-rule="evenodd" d="M4.41752 8.58581L3.24594 7.41424C2.46489 6.63319 2.46489 5.36686 3.24594 4.58581L5.75085 2.0809C6.5319 1.29985 7.79823 1.29986 8.57927 2.0809L9.75085 3.25248C10.5319 4.03353 10.5319 5.29986 9.75085 6.0809L7.24594 8.58581C6.46489 9.36686 5.19856 9.36686 4.41752 8.58581ZM4.18875 6.47143L5.36032 7.643C5.62067 7.90335 6.04278 7.90335 6.30313 7.643L8.80804 5.1381C9.06839 4.87775 9.06839 4.45564 8.80804 4.19529L7.63647 3.02371C7.37611 2.76336 6.95401 2.76336 6.69366 3.02371L4.18875 5.52862C3.9284 5.78897 3.9284 6.21108 4.18875 6.47143Z" fill="#64CE7C"/>
<path fill-rule="evenodd" clip-rule="evenodd" d="M5.83203 13.3334C6.20022 13.3334 6.4987 13.0349 6.4987 12.6667C6.4987 12.2985 6.20022 12 5.83203 12C5.46384 12 5.16536 12.2985 5.16536 12.6667C5.16536 13.0349 5.46384 13.3334 5.83203 13.3334ZM5.83203 14.6667C6.9366 14.6667 7.83203 13.7713 7.83203 12.6667C7.83203 11.5621 6.9366 10.6667 5.83203 10.6667C4.72746 10.6667 3.83203 11.5621 3.83203 12.6667C3.83203 13.7713 4.72746 14.6667 5.83203 14.6667Z" fill="#64CE7C"/>
</svg>
