<svg width="14" height="14" viewBox="0 0 14 14" fill="none" xmlns="http://www.w3.org/2000/svg">
<path fill-rule="evenodd" clip-rule="evenodd" d="M1.89874 0.800029C1.60419 0.579115 1.18632 0.638811 0.965404 0.933362C0.74449 1.22791 0.804185 1.64578 1.09874 1.8667L2.23724 2.72057L4.06322 10.6332C4.20283 11.2382 4.74154 11.6667 5.36241 11.6667H11.1654C11.5336 11.6667 11.8321 11.3682 11.8321 11C11.8321 10.6318 11.5336 10.3334 11.1654 10.3334L5.36241 10.3334L5.1894 9.58363L10.0645 9.17737C11.6353 9.04647 12.8997 7.83312 13.0953 6.269L13.3999 3.83204C13.4994 3.03623 12.8788 2.33332 12.0768 2.33332H3.5131C3.43099 2.06277 3.26468 1.82448 3.03724 1.65391L1.89874 0.800029ZM3.82394 3.66666L4.88646 8.27092L9.95376 7.84865C10.8963 7.7701 11.6549 7.0421 11.7722 6.10362L12.0768 3.66666H3.82394Z" fill="#FF3636"/>
<path d="M6.16536 13C6.16536 13.3682 5.86689 13.6667 5.4987 13.6667C5.13051 13.6667 4.83203 13.3682 4.83203 13C4.83203 12.6318 5.13051 12.3333 5.4987 12.3333C5.86689 12.3333 6.16536 12.6318 6.16536 13Z" fill="#FF3636"/>
<path d="M10.1654 13.6667C10.5336 13.6667 10.832 13.3682 10.832 13C10.832 12.6318 10.5336 12.3333 10.1654 12.3333C9.79717 12.3333 9.4987 12.6318 9.4987 13C9.4987 13.3682 9.79717 13.6667 10.1654 13.6667Z" fill="#FF3636"/>
</svg>
