<svg width="16" height="16" viewBox="0 0 16 16" fill="none" xmlns="http://www.w3.org/2000/svg">
<path d="M10.6667 8.66669C11.0349 8.66669 11.3333 8.36821 11.3333 8.00002C11.3333 7.63183 11.0349 7.33335 10.6667 7.33335C10.2985 7.33335 10 7.63183 10 8.00002C10 8.36821 10.2985 8.66669 10.6667 8.66669Z" fill="#6E6E73"/>
<path fill-rule="evenodd" clip-rule="evenodd" d="M2 4.00002C2 3.26364 2.59695 2.66669 3.33333 2.66669H12.6667C13.403 2.66669 14 3.26364 14 4.00002V5.51173C14.3985 5.74227 14.6667 6.17317 14.6667 6.66669V9.33335C14.6667 9.82688 14.3985 10.2578 14 10.4883V12C14 12.7364 13.403 13.3334 12.6667 13.3334H3.33333C2.59695 13.3334 2 12.7364 2 12V4.00002ZM12.6667 4.00002V5.33335H10C8.52724 5.33335 7.33333 6.52726 7.33333 8.00002C7.33333 9.47278 8.52724 10.6667 10 10.6667H12.6667V12H3.33333V4.00002L12.6667 4.00002ZM10 6.66669C9.26362 6.66669 8.66667 7.26364 8.66667 8.00002C8.66667 8.7364 9.26362 9.33335 10 9.33335H13.3333V6.66669H10Z" fill="#6E6E73"/>
</svg>
