<svg width="17" height="16" viewBox="0 0 17 16" fill="none" xmlns="http://www.w3.org/2000/svg">
<g clip-path="url(#clip0_1180_161879)">
<path fill-rule="evenodd" clip-rule="evenodd" d="M0.5 4.66666C0.5 3.56209 1.39543 2.66666 2.5 2.66666H7.83333C8.9379 2.66666 9.83333 3.56209 9.83333 4.66666V10.6667C9.83333 11.403 9.23638 12 8.5 12H5.83333V10.6667H8.16667C8.35076 10.6667 8.5 10.5174 8.5 10.3333V4.66666C8.5 4.29847 8.20152 3.99999 7.83333 3.99999H2.5C2.13181 3.99999 1.83333 4.29847 1.83333 4.66666V9.99999C1.83333 10.3682 2.13181 10.6667 2.5 10.6667H3.16667V12H2.5C1.39543 12 0.5 11.1046 0.5 9.99999V4.66666Z" fill="#A865FF"/>
<path fill-rule="evenodd" clip-rule="evenodd" d="M8.5 4.66666H12.6501C13.1486 4.66666 13.6292 4.85285 13.9976 5.18875L15.8475 6.87545C16.2631 7.25441 16.5 7.79089 16.5 8.35336V9.99999C16.5 11.1046 15.6046 12 14.5 12H13.8333V10.6667H14.5C14.8682 10.6667 15.1667 10.3682 15.1667 9.99999V8.35336C15.1667 8.16587 15.0877 7.98704 14.9492 7.86072L13.0992 6.17402C12.9764 6.06205 12.8163 5.99999 12.6501 5.99999H10.5C10.1318 5.99999 9.83333 6.29847 9.83333 6.66666V10.3333C9.83333 10.5174 9.98257 10.6667 10.1667 10.6667H11.1667V12H8.5V4.66666Z" fill="#A865FF"/>
<path fill-rule="evenodd" clip-rule="evenodd" d="M4.5 12C4.86819 12 5.16667 11.7015 5.16667 11.3333C5.16667 10.9652 4.86819 10.6667 4.5 10.6667C4.13181 10.6667 3.83333 10.9652 3.83333 11.3333C3.83333 11.7015 4.13181 12 4.5 12ZM4.5 13.3333C5.60457 13.3333 6.5 12.4379 6.5 11.3333C6.5 10.2288 5.60457 9.33334 4.5 9.33334C3.39543 9.33334 2.5 10.2288 2.5 11.3333C2.5 12.4379 3.39543 13.3333 4.5 13.3333Z" fill="#A865FF"/>
<path fill-rule="evenodd" clip-rule="evenodd" d="M12.5 12C12.8682 12 13.1667 11.7015 13.1667 11.3333C13.1667 10.9652 12.8682 10.6667 12.5 10.6667C12.1318 10.6667 11.8333 10.9652 11.8333 11.3333C11.8333 11.7015 12.1318 12 12.5 12ZM12.5 13.3333C13.6046 13.3333 14.5 12.4379 14.5 11.3333C14.5 10.2288 13.6046 9.33334 12.5 9.33334C11.3954 9.33334 10.5 10.2288 10.5 11.3333C10.5 12.4379 11.3954 13.3333 12.5 13.3333Z" fill="#A865FF"/>
</g>
<defs>
<clipPath id="clip0_1180_161879">
<rect width="16" height="16" fill="white" transform="translate(0.5)"/>
</clipPath>
</defs>
</svg>
