<svg width="14" height="14" viewBox="0 0 14 14" fill="none" xmlns="http://www.w3.org/2000/svg">
<path d="M7.66537 10.3333C7.66537 10.7015 7.36689 11 6.9987 11C6.63051 11 6.33203 10.7015 6.33203 10.3333C6.33203 9.96512 6.63051 9.66665 6.9987 9.66665C7.36689 9.66665 7.66537 9.96512 7.66537 10.3333Z" fill="#6E6E73"/>
<path fill-rule="evenodd" clip-rule="evenodd" d="M5.91536 5.74998C5.91536 5.15167 6.40039 4.66665 6.9987 4.66665C7.59701 4.66665 8.08203 5.15167 8.08203 5.74998C8.08203 6.20485 7.80147 6.5958 7.40147 6.75616C6.95157 6.93652 6.33203 7.39802 6.33203 8.16665V8.33331C6.33203 8.7015 6.63051 8.99998 6.9987 8.99998C7.36689 8.99998 7.66537 8.7015 7.66537 8.33331C7.66537 8.26382 7.64474 8.18261 7.69388 8.12741C7.73386 8.08251 7.80512 8.03082 7.8976 7.99375C8.78601 7.6376 9.41537 6.76809 9.41537 5.74998C9.41537 4.41529 8.33339 3.33331 6.9987 3.33331C5.66401 3.33331 4.58203 4.41529 4.58203 5.74998C4.58203 6.11817 4.88051 6.41665 5.2487 6.41665C5.61689 6.41665 5.91536 6.11817 5.91536 5.74998Z" fill="#6E6E73"/>
<path fill-rule="evenodd" clip-rule="evenodd" d="M0.332031 6.99998C0.332031 3.31808 3.3168 0.333313 6.9987 0.333313C10.6806 0.333313 13.6654 3.31808 13.6654 6.99998C13.6654 10.6819 10.6806 13.6666 6.9987 13.6666C3.3168 13.6666 0.332031 10.6819 0.332031 6.99998ZM6.9987 1.66665C4.05318 1.66665 1.66536 4.05446 1.66536 6.99998C1.66536 9.9455 4.05318 12.3333 6.9987 12.3333C9.94422 12.3333 12.332 9.9455 12.332 6.99998C12.332 4.05446 9.94422 1.66665 6.9987 1.66665Z" fill="#6E6E73"/>
</svg>
