<svg width="17" height="16" viewBox="0 0 17 16" fill="none" xmlns="http://www.w3.org/2000/svg">
<path fill-rule="evenodd" clip-rule="evenodd" d="M8.5 1.33331C6.65905 1.33331 5.16667 2.8257 5.16667 4.66665C5.16667 6.5076 6.65905 7.99998 8.5 7.99998C10.3409 7.99998 11.8333 6.5076 11.8333 4.66665C11.8333 2.8257 10.3409 1.33331 8.5 1.33331ZM6.5 4.66665C6.5 3.56208 7.39543 2.66665 8.5 2.66665C9.60457 2.66665 10.5 3.56208 10.5 4.66665C10.5 5.77122 9.60457 6.66665 8.5 6.66665C7.39543 6.66665 6.5 5.77122 6.5 4.66665Z" fill="#FFB660"/>
<path fill-rule="evenodd" clip-rule="evenodd" d="M5.83333 9.33331C3.99238 9.33331 2.5 10.8257 2.5 12.6666V13.3333C2.5 14.0697 3.09695 14.6666 3.83333 14.6666H13.1667C13.903 14.6666 14.5 14.0697 14.5 13.3333V12.6666C14.5 10.8257 13.0076 9.33331 11.1667 9.33331H5.83333ZM3.83333 12.6666C3.83333 11.5621 4.72876 10.6666 5.83333 10.6666H11.1667C12.2712 10.6666 13.1667 11.5621 13.1667 12.6666V13.3333H3.83333V12.6666Z" fill="#FFB660"/>
</svg>
