<svg width="16" height="16" viewBox="0 0 16 16" fill="none" xmlns="http://www.w3.org/2000/svg">
<path d="M11.2984 6.53028C11.5588 6.26993 11.5588 5.84782 11.2984 5.58747C11.0381 5.32712 10.616 5.32712 10.3556 5.58747L7.05579 8.8873L5.64157 7.47309C5.38123 7.21274 4.95911 7.21274 4.69877 7.47309C4.43842 7.73344 4.43842 8.15555 4.69877 8.4159L6.53724 10.2544C6.82363 10.5408 7.28795 10.5408 7.57433 10.2544L11.2984 6.53028Z" fill="#6E6E73"/>
<path fill-rule="evenodd" clip-rule="evenodd" d="M7.9987 1.33331C4.3168 1.33331 1.33203 4.31808 1.33203 7.99998C1.33203 11.6819 4.3168 14.6666 7.9987 14.6666C11.6806 14.6666 14.6654 11.6819 14.6654 7.99998C14.6654 4.31808 11.6806 1.33331 7.9987 1.33331ZM2.66536 7.99998C2.66536 5.05446 5.05318 2.66665 7.9987 2.66665C10.9442 2.66665 13.332 5.05446 13.332 7.99998C13.332 10.9455 10.9442 13.3333 7.9987 13.3333C5.05318 13.3333 2.66536 10.9455 2.66536 7.99998Z" fill="#6E6E73"/>
</svg>
