<svg width="16" height="16" viewBox="0 0 16 16" fill="none" xmlns="http://www.w3.org/2000/svg">
<path fill-rule="evenodd" clip-rule="evenodd" d="M1.33203 3.33333C1.33203 2.59695 1.92898 2 2.66536 2H6.66536C7.1776 2 7.64486 2.19257 7.9987 2.50926C8.35254 2.19257 8.81979 2 9.33203 2H13.332C14.0684 2 14.6654 2.59695 14.6654 3.33333V12C14.6654 12.7364 14.0684 13.3333 13.332 13.3333H8.66536C8.66536 13.7015 8.36689 14 7.9987 14C7.63051 14 7.33203 13.7015 7.33203 13.3333H2.66536C1.92898 13.3333 1.33203 12.7364 1.33203 12V3.33333ZM7.33203 12H2.66536V3.33333H6.66536C7.03355 3.33333 7.33203 3.63181 7.33203 4V12ZM8.66536 12H13.332V3.33333H9.33203C8.96384 3.33333 8.66536 3.63181 8.66536 4V12Z" fill="#F476D1"/>
</svg>
