<svg width="14" height="14" viewBox="0 0 14 14" fill="none" xmlns="http://www.w3.org/2000/svg">
<path d="M7.0013 11C6.63311 11 6.33464 10.7015 6.33464 10.3334L6.33464 6.33335C6.33464 5.96516 6.63311 5.66669 7.0013 5.66669C7.36949 5.66669 7.66797 5.96516 7.66797 6.33335L7.66797 10.3334C7.66797 10.7015 7.36949 11 7.0013 11Z" fill="#6E6E73"/>
<path d="M7.0013 3.66669C6.63311 3.66669 6.33464 3.96516 6.33464 4.33335C6.33464 4.70154 6.63311 5.00002 7.0013 5.00002C7.36949 5.00002 7.66797 4.70154 7.66797 4.33335C7.66797 3.96516 7.36949 3.66669 7.0013 3.66669Z" fill="#6E6E73"/>
<path fill-rule="evenodd" clip-rule="evenodd" d="M13.668 7.00002C13.668 10.6819 10.6832 13.6667 7.0013 13.6667C3.3194 13.6667 0.334637 10.6819 0.334637 7.00002C0.334637 3.31812 3.3194 0.333355 7.0013 0.333355C10.6832 0.333355 13.668 3.31812 13.668 7.00002ZM7.0013 12.3334C9.94682 12.3334 12.3346 9.94554 12.3346 7.00002C12.3346 4.0545 9.94682 1.66669 7.0013 1.66669C4.05578 1.66669 1.66797 4.0545 1.66797 7.00002C1.66797 9.94554 4.05578 12.3334 7.0013 12.3334Z" fill="#6E6E73"/>
</svg>
