<svg width="17" height="16" viewBox="0 0 17 16" fill="none" xmlns="http://www.w3.org/2000/svg">
<path fill-rule="evenodd" clip-rule="evenodd" d="M13.9092 4.4494C14.6194 4.82483 14.6194 5.84214 13.9092 6.21757L13.0593 6.66682L13.9092 7.11607C14.6194 7.49149 14.6194 8.50881 13.9092 8.88424L13.0593 9.33348L13.9092 9.78273C14.6194 10.1582 14.6194 11.1755 13.9092 11.5509L9.12136 14.0817C8.73152 14.2878 8.265 14.2878 7.87516 14.0817L3.08736 11.5509C2.37713 11.1755 2.37713 10.1582 3.08736 9.78273L3.93725 9.33348L3.08736 8.88424C2.37713 8.50881 2.37713 7.49149 3.08736 7.11607L3.93725 6.66682L3.08736 6.21757C2.37713 5.84214 2.37713 4.82482 3.08736 4.4494L7.87516 1.91859C8.26501 1.71252 8.73152 1.71252 9.12136 1.91859L13.9092 4.4494ZM12.7286 5.33348L8.49826 3.09737L4.26797 5.33348L8.49826 7.5696L12.7286 5.33348ZM5.36381 10.0876L4.26797 10.6668L8.49826 12.9029L12.7286 10.6668L11.6327 10.0876L9.12136 11.415C8.73152 11.6211 8.265 11.6211 7.87516 11.415L5.36381 10.0876ZM9.12136 8.74838L11.6327 7.42089L12.7286 8.00015L8.49826 10.2363L4.26797 8.00015L5.36381 7.42089L7.87516 8.74838C8.265 8.95445 8.73152 8.95445 9.12136 8.74838Z" fill="#6989F3"/>
</svg>
