<svg width="27" height="26" viewBox="0 0 27 26" fill="none" xmlns="http://www.w3.org/2000/svg">
<path d="M13.5 0C10.053 0 6.74406 1.37048 4.30859 3.80758C1.87061 6.24564 0.500675 9.55212 0.5 13C0.5 16.4464 1.87109 19.7553 4.30859 22.1924C6.74406 24.6295 10.053 26 13.5 26C16.947 26 20.2559 24.6295 22.6914 22.1924C25.1289 19.7553 26.5 16.4464 26.5 13C26.5 9.55358 25.1289 6.24467 22.6914 3.80758C20.2559 1.37048 16.947 0 13.5 0Z" fill="url(#paint0_linear_0_1)"/>
<path d="M6.46229 12.7355C10.2211 11.1833 12.727 10.1599 13.9799 9.66543C17.5614 8.25359 18.3047 8.00838 18.7902 8.00007C18.897 7.99845 19.1347 8.02347 19.2898 8.14235C19.4187 8.24261 19.4549 8.37819 19.4731 8.47339C19.4892 8.5685 19.5113 8.78525 19.4932 8.95445C19.2998 10.8871 18.4598 15.5769 18.0328 17.7416C17.8535 18.6575 17.497 18.9646 17.1525 18.9945C16.4032 19.0599 15.8351 18.5255 15.11 18.075C13.9759 17.3698 13.3353 16.9309 12.2334 16.2429C10.9604 15.4476 11.7863 15.0105 12.5114 14.2963C12.7008 14.1093 16.0003 11.2648 16.0627 11.0068C16.0708 10.9745 16.0789 10.8542 16.0023 10.7908C15.9278 10.7272 15.817 10.749 15.7364 10.7662C15.6216 10.7906 13.8107 11.9265 10.2976 14.1737C9.78397 14.5086 9.31866 14.6719 8.89967 14.6633C8.44039 14.654 7.55407 14.4166 6.89538 14.2138C6.08963 13.965 5.44705 13.8334 5.50345 13.4108C5.53165 13.1908 5.85193 12.9656 6.46229 12.7355Z" fill="white"/>
<defs>
<linearGradient id="paint0_linear_0_1" x1="1300.5" y1="0" x2="1300.5" y2="2600" gradientUnits="userSpaceOnUse">
<stop stop-color="#2AABEE"/>
<stop offset="1" stop-color="#229ED9"/>
</linearGradient>
</defs>
</svg>
