<svg width="20" height="21" viewBox="0 0 20 21" fill="none" xmlns="http://www.w3.org/2000/svg">
<path d="M13.3333 5.50521V4.83854C13.3333 3.90512 13.3333 3.43841 13.1517 3.08189C12.9919 2.76829 12.7369 2.51332 12.4233 2.35353C12.0668 2.17188 11.6001 2.17188 10.6667 2.17188H9.33333C8.39991 2.17188 7.9332 2.17188 7.57668 2.35353C7.26308 2.51332 7.00811 2.76829 6.84832 3.08189C6.66667 3.43841 6.66667 3.90512 6.66667 4.83854V5.50521M8.33333 10.0885V14.2552M11.6667 10.0885V14.2552M2.5 5.50521H17.5M15.8333 5.50521V14.8385C15.8333 16.2387 15.8333 16.9387 15.5608 17.4735C15.3212 17.9439 14.9387 18.3264 14.4683 18.5661C13.9335 18.8385 13.2335 18.8385 11.8333 18.8385H8.16667C6.76654 18.8385 6.06647 18.8385 5.53169 18.5661C5.06129 18.3264 4.67883 17.9439 4.43915 17.4735C4.16667 16.9387 4.16667 16.2387 4.16667 14.8385V5.50521" stroke="#000000" stroke-width="2" stroke-linecap="round" stroke-linejoin="round"/>
</svg>
