<svg width="20" height="21" viewBox="0 0 20 21" fill="none" xmlns="http://www.w3.org/2000/svg">
<path d="M11.6615 9.66406H6.66146M8.32812 12.9974H6.66146M13.3281 6.33073H6.66146M16.6615 6.16406V14.8307C16.6615 16.2309 16.6615 16.9309 16.389 17.4657C16.1493 17.9361 15.7668 18.3186 15.2964 18.5582C14.7617 18.8307 14.0616 18.8307 12.6615 18.8307H7.32813C5.92799 18.8307 5.22793 18.8307 4.69315 18.5582C4.22274 18.3186 3.84029 17.9361 3.60061 17.4657C3.32812 16.9309 3.32812 16.2309 3.32812 14.8307V6.16406C3.32812 4.76393 3.32812 4.06387 3.60061 3.52909C3.84029 3.05868 4.22274 2.67623 4.69315 2.43655C5.22793 2.16406 5.92799 2.16406 7.32813 2.16406H12.6615C14.0616 2.16406 14.7617 2.16406 15.2964 2.43655C15.7668 2.67623 16.1493 3.05868 16.389 3.52909C16.6615 4.06387 16.6615 4.76393 16.6615 6.16406Z" stroke="#000000" stroke-width="2" stroke-linecap="round" stroke-linejoin="round"/>
</svg>
