<svg width="12" height="12" viewBox="0 0 12 12" fill="none" xmlns="http://www.w3.org/2000/svg">
<path fill-rule="evenodd" clip-rule="evenodd" d="M10.4047 3.81193L10.0935 3.27188C9.83017 2.81492 9.2467 2.65728 8.78911 2.91948V2.91948C8.57129 3.04779 8.31138 3.0842 8.0667 3.02067C7.82201 2.95713 7.61264 2.79888 7.48476 2.58081C7.4025 2.4422 7.35829 2.28432 7.35662 2.12314V2.12314C7.36404 1.86473 7.26655 1.61432 7.08635 1.42896C6.90616 1.24359 6.65861 1.13905 6.40009 1.13916H5.77309C5.51983 1.13916 5.277 1.24008 5.09834 1.41959C4.91969 1.59911 4.81993 1.84242 4.82115 2.09568V2.09568C4.81364 2.61858 4.38758 3.03853 3.86463 3.03847C3.70345 3.0368 3.54557 2.99259 3.40696 2.91033V2.91033C2.94937 2.64813 2.3659 2.80577 2.10261 3.26273L1.76852 3.81193C1.50555 4.26832 1.66104 4.85143 2.11634 5.11628V5.11628C2.41229 5.28714 2.59461 5.60292 2.59461 5.94465C2.59461 6.28639 2.41229 6.60216 2.11634 6.77303V6.77303C1.66162 7.03609 1.50596 7.61779 1.76852 8.0728V8.0728L2.08431 8.61742C2.20767 8.84001 2.41464 9.00427 2.65944 9.07384C2.90423 9.14342 3.16666 9.11257 3.38865 8.98813V8.98813C3.60688 8.86079 3.86694 8.8259 4.11101 8.89122C4.35509 8.95654 4.56296 9.11664 4.68842 9.33596C4.77069 9.47457 4.8149 9.63245 4.81657 9.79362V9.79362C4.81657 10.3219 5.24482 10.7501 5.77309 10.7501H6.40009C6.92659 10.7502 7.3541 10.3247 7.35662 9.7982V9.7982C7.35539 9.54414 7.45578 9.30013 7.63542 9.12048C7.81507 8.94084 8.05908 8.84045 8.31314 8.84168C8.47393 8.84598 8.63116 8.89 8.7708 8.96982V8.96982C9.22719 9.23279 9.8103 9.0773 10.0752 8.622V8.622L10.4047 8.0728C10.5322 7.85387 10.5672 7.59313 10.5019 7.34831C10.4367 7.10349 10.2765 6.8948 10.0568 6.76845V6.76845C9.83722 6.6421 9.67703 6.43341 9.61175 6.18859C9.54646 5.94377 9.58147 5.68303 9.70902 5.4641C9.79196 5.31929 9.91203 5.19922 10.0568 5.11628V5.11628C10.5094 4.85157 10.6645 4.27187 10.4047 3.81651V3.81651V3.81193Z" stroke="#474550" stroke-width="0.7" stroke-linecap="round" stroke-linejoin="round"/>
<circle cx="6.09152" cy="5.94454" r="1.31808" stroke="#474550" stroke-width="0.7" stroke-linecap="round" stroke-linejoin="round"/>
</svg>
