<svg width="67" height="83.606" viewBox="0 0 67 83.606" xmlns="http://www.w3.org/2000/svg"><g id="svgGroup" stroke-linecap="round" fill-rule="evenodd" font-size="9pt" stroke="#000" stroke-width="0.25mm" fill="#000" style="stroke:#000;stroke-width:0.25mm;fill:#000"><path d="M 19.788 83.582 Q 14.688 83.782 10.438 82.332 A 22.599 22.599 0 0 1 7.026 80.862 Q 5.029 79.788 3.538 78.382 A 11.505 11.505 0 0 1 1.01 74.972 A 10.713 10.713 0 0 1 0.188 72.532 A 8.849 8.849 0 0 1 0 70.717 Q 0 68.24 1.388 65.682 Q 3.88 61.657 11.146 63.05 A 26.033 26.033 0 0 1 11.788 63.182 A 164.08 164.08 0 0 0 14.354 63.684 Q 17.936 64.353 19.677 64.467 A 12.372 12.372 0 0 0 19.938 64.482 Q 22.188 64.582 23.788 63.882 A 38.454 38.454 0 0 0 26.583 62.852 Q 31.278 60.891 31.988 58.682 A 2.465 2.465 0 0 0 32.083 58.001 Q 32.083 56.412 30.118 54.46 A 15.806 15.806 0 0 0 29.388 53.782 A 34.558 34.558 0 0 0 27.646 52.282 A 41.528 41.528 0 0 0 26.488 51.382 A 22.926 22.926 0 0 1 25.019 50.187 A 16.819 16.819 0 0 1 23.788 48.982 A 30.591 30.591 0 0 1 18.378 43.908 A 26.533 26.533 0 0 1 15.938 40.432 A 17.208 17.208 0 0 1 13.514 31.564 A 19.249 19.249 0 0 1 13.588 29.882 A 50.873 50.873 0 0 1 14.09 25.881 Q 14.613 22.776 15.488 20.432 A 29.769 29.769 0 0 1 17.512 16.076 A 25.261 25.261 0 0 1 18.988 13.782 A 28.143 28.143 0 0 1 27.86 5.889 A 32.672 32.672 0 0 1 28.588 5.482 Q 34.697 2.338 38.627 1.211 A 22.322 22.322 0 0 1 39.488 0.982 A 40.889 40.889 0 0 1 48.384 0 A 42.122 42.122 0 0 1 55.888 0.682 Q 58.688 1.182 60.688 2.582 Q 62.688 3.982 64.688 5.482 Q 68.188 8.982 66.388 12.582 Q 65.688 14.182 64.188 15.182 A 6.511 6.511 0 0 1 61.877 16.165 A 6.212 6.212 0 0 1 60.988 16.282 A 10.39 10.39 0 0 1 61.015 16.833 Q 61.049 18.467 60.509 19.528 A 3.331 3.331 0 0 1 59.988 20.282 A 7.694 7.694 0 0 1 57.951 21.701 Q 55.994 22.674 52.972 23.145 A 30.581 30.581 0 0 1 51.988 23.282 A 69.745 69.745 0 0 0 50.021 23.165 Q 43.426 22.869 40.888 24.182 A 4.751 4.751 0 0 0 38.503 27.23 Q 37.961 29.132 38.388 31.982 A 3.411 3.411 0 0 0 38.757 33.055 Q 39.178 33.851 40.038 34.682 A 47.565 47.565 0 0 0 41.56 36.085 Q 42.433 36.857 43.438 37.682 Q 45.388 39.282 47.538 41.282 Q 49.688 43.282 51.288 45.882 A 17.343 17.343 0 0 1 53.88 55.062 Q 53.88 60.774 50.388 67.382 A 27.257 27.257 0 0 1 40.869 77.668 A 38.622 38.622 0 0 1 33.988 81.182 Q 27.988 83.582 19.788 83.582 Z" vector-effect="non-scaling-stroke"/></g></svg>