<svg width="198.389" height="42.954" viewBox="0 0 198.389 42.954" xmlns="http://www.w3.org/2000/svg"><g id="svgGroup" stroke-linecap="round" fill-rule="evenodd" font-size="9pt" stroke="#000000" stroke-width="0.25mm" fill="#000000" style="stroke:#000000;stroke-width:0.25mm;fill:#000000"><path d="M 160.794 18.858 Q 161.754 15.642 162.354 13.89 Q 162.954 12.138 163.53 10.746 Q 164.106 9.354 164.85 8.058 Q 165.594 6.762 166.482 5.682 A 8.806 8.806 0 0 1 167.445 4.676 A 6.857 6.857 0 0 1 168.378 3.978 A 4.136 4.136 0 0 1 169.693 3.438 A 3.795 3.795 0 0 1 170.49 3.354 Q 171.594 3.354 172.794 4.218 A 206.761 206.761 0 0 1 173.563 6.167 Q 174.809 9.375 175.146 10.65 A 30.79 30.79 0 0 1 175.493 12.319 Q 175.871 14.398 176.202 17.418 Q 176.634 16.314 177.186 15.09 Q 177.738 13.866 178.266 12.618 Q 179.442 10.116 179.928 8.572 A 10.628 10.628 0 0 0 180.138 7.818 Q 181.194 4.458 184.506 2.778 A 10.974 10.974 0 0 1 186.279 2.067 Q 187.431 1.724 188.516 1.724 A 6.587 6.587 0 0 1 189.882 1.866 A 3.121 3.121 0 0 1 190.453 2.028 Q 190.77 2.154 190.997 2.344 A 1.534 1.534 0 0 1 191.298 2.682 A 1.313 1.313 0 0 1 191.447 2.985 Q 191.608 3.468 191.298 3.978 Q 190.983 4.497 190.983 4.974 A 1.406 1.406 0 0 0 191.01 5.25 Q 191.102 5.71 191.18 6.295 A 25.091 25.091 0 0 1 191.226 6.666 A 9.109 9.109 0 0 1 191.246 7.259 Q 191.246 8.341 190.976 9.295 A 6.427 6.427 0 0 1 190.458 10.578 A 26.866 26.866 0 0 0 189.768 11.971 Q 189.404 12.756 189.034 13.666 A 53.388 53.388 0 0 0 188.586 14.802 Q 187.626 17.322 186.642 20.154 Q 185.658 22.986 184.65 25.914 Q 183.642 28.842 182.682 31.242 Q 181.031 35.557 179.85 36.851 A 1.916 1.916 0 0 1 179.226 37.338 A 25.368 25.368 0 0 1 178.381 37.83 Q 177.201 38.482 176.553 38.631 A 2.34 2.34 0 0 1 176.538 38.634 Q 175.564 38.804 173.878 38.674 A 25.517 25.517 0 0 1 173.418 38.634 A 1.268 1.268 0 0 1 172.645 38.254 Q 171.875 37.527 171.258 35.418 Q 170.73 33.738 170.298 30.762 Q 169.672 26.532 169.365 25.402 A 1.832 1.832 0 0 0 169.242 25.05 Q 167.706 30.042 166.892 32.085 A 12.971 12.971 0 0 1 166.53 32.922 Q 165.738 34.554 165.33 35.082 A 16.099 16.099 0 0 0 165.03 35.485 Q 164.877 35.696 164.706 35.943 A 38.546 38.546 0 0 0 164.346 36.474 A 3.611 3.611 0 0 1 163.06 38.158 Q 162.545 38.542 161.853 38.833 A 7.968 7.968 0 0 1 161.37 39.018 A 7.428 7.428 0 0 1 160.28 39.345 Q 159.679 39.473 159.116 39.473 A 4.499 4.499 0 0 1 157.722 39.258 Q 156.037 38.711 156.6 37.213 A 3.149 3.149 0 0 1 156.666 37.05 Q 157.065 32.708 159.209 24.573 A 246.581 246.581 0 0 1 160.794 18.858 Z M 8.911 40.278 A 14.992 14.992 0 0 0 9.498 40.266 Q 13.434 40.266 16.314 39.114 Q 21.882 36.906 24.186 32.49 A 18.87 18.87 0 0 0 24.591 31.68 Q 25.862 28.965 25.862 26.576 A 8.325 8.325 0 0 0 24.618 22.17 Q 23.85 20.922 22.818 19.962 Q 21.786 19.002 20.85 18.234 A 37.189 37.189 0 0 1 20.79 18.185 Q 20.342 17.815 19.949 17.468 A 22.832 22.832 0 0 1 19.218 16.794 A 4.04 4.04 0 0 1 18.892 16.442 Q 18.497 15.957 18.426 15.498 A 9.74 9.74 0 0 1 18.424 15.479 Q 18.223 14.124 18.482 13.217 A 2.28 2.28 0 0 1 19.626 11.754 A 2.786 2.786 0 0 1 19.901 11.631 Q 21.174 11.139 24.01 11.266 A 33.477 33.477 0 0 1 24.954 11.322 Q 26.729 11.104 27.817 10.563 A 3.693 3.693 0 0 0 28.794 9.882 A 1.599 1.599 0 0 0 29.044 9.52 Q 29.304 9.011 29.287 8.227 A 4.987 4.987 0 0 0 29.274 7.962 A 2.982 2.982 0 0 0 29.701 7.906 A 3.125 3.125 0 0 0 30.81 7.434 Q 31.53 6.954 31.866 6.186 A 3.074 3.074 0 0 0 31.995 5.893 Q 32.456 4.667 31.63 3.465 A 4.921 4.921 0 0 0 31.05 2.778 Q 30.09 2.058 29.13 1.386 Q 28.17 0.714 26.826 0.474 A 20.218 20.218 0 0 0 23.224 0.147 A 19.627 19.627 0 0 0 18.954 0.618 Q 17.571 0.956 15.546 1.886 A 45.901 45.901 0 0 0 13.722 2.778 A 15.683 15.683 0 0 0 13.373 2.974 A 13.509 13.509 0 0 0 9.114 6.762 A 12.125 12.125 0 0 0 8.406 7.864 A 14.289 14.289 0 0 0 7.434 9.954 A 11.531 11.531 0 0 0 7.14 10.859 Q 6.706 12.402 6.522 14.49 A 9.239 9.239 0 0 0 6.487 15.298 A 8.26 8.26 0 0 0 7.65 19.554 Q 9.018 21.882 11.418 23.658 A 8.073 8.073 0 0 0 12.009 24.236 A 11.004 11.004 0 0 0 12.714 24.81 Q 13.482 25.386 14.106 25.962 A 7.587 7.587 0 0 1 14.457 26.288 Q 15.607 27.43 15.354 28.314 A 1.442 1.442 0 0 1 15.265 28.53 Q 14.639 29.751 11.418 30.81 Q 10.65 31.146 9.57 31.098 Q 8.744 31.061 6.89 30.715 A 78.758 78.758 0 0 1 5.658 30.474 A 12.496 12.496 0 0 0 5.35 30.411 Q 1.862 29.742 0.666 31.674 Q 0 32.902 0 34.091 A 4.248 4.248 0 0 0 0.09 34.962 A 5.142 5.142 0 0 0 0.485 36.133 A 5.522 5.522 0 0 0 1.698 37.77 A 6.87 6.87 0 0 0 1.743 37.812 Q 2.444 38.461 3.372 38.961 A 10.848 10.848 0 0 0 5.01 39.666 A 10.915 10.915 0 0 0 6.31 40.021 Q 7.544 40.278 8.911 40.278 Z M 63.258 37.626 L 63.498 37.626 A 2.742 2.742 0 0 1 61.862 39.584 Q 61.362 39.814 60.717 39.942 A 7.019 7.019 0 0 1 60.522 39.978 A 7.942 7.942 0 0 1 59.086 40.112 A 7.237 7.237 0 0 1 56.058 39.45 A 5.642 5.642 0 0 1 55.191 38.994 Q 53.779 38.069 53.991 36.643 A 2.728 2.728 0 0 1 53.994 36.618 Q 53.741 34.17 56.197 26.676 A 143.16 143.16 0 0 1 56.922 24.522 Q 61.722 10.554 66.522 4.554 Q 67.77 3.018 68.658 2.562 Q 69.546 2.106 70.698 1.722 A 42.177 42.177 0 0 1 72.788 1.087 A 46.309 46.309 0 0 1 73.098 1.002 A 36.256 36.256 0 0 1 75.969 0.348 A 29.385 29.385 0 0 1 77.826 0.066 A 9.36 9.36 0 0 1 78.781 0.001 Q 79.941 -0.017 80.966 0.278 A 6.616 6.616 0 0 1 81.834 0.594 A 6.429 6.429 0 0 1 83.78 1.909 A 5.989 5.989 0 0 1 84.594 2.922 A 7.843 7.843 0 0 1 85.594 5.288 A 9.973 9.973 0 0 1 85.818 6.546 A 14.304 14.304 0 0 1 85.911 8.181 Q 85.911 9.345 85.73 10.564 A 18.061 18.061 0 0 1 85.674 10.914 A 19.31 19.31 0 0 1 84.694 14.506 A 22.407 22.407 0 0 1 84.282 15.522 Q 83.274 17.85 81.738 19.866 Q 78.378 24.282 73.866 25.578 L 74.346 26.394 A 26.939 26.939 0 0 0 74.989 27.336 Q 75.387 27.894 75.858 28.506 Q 76.746 29.658 77.634 30.858 Q 78.522 32.058 79.242 33.258 A 13.185 13.185 0 0 1 79.799 34.281 Q 80.109 34.92 80.298 35.514 A 4.775 4.775 0 0 1 80.446 36.072 Q 80.759 37.662 79.634 38.571 A 3.433 3.433 0 0 1 79.098 38.922 A 6.331 6.331 0 0 1 78.528 39.232 Q 77.343 39.792 76.602 39.402 A 4.586 4.586 0 0 1 76.146 39.075 A 5.758 5.758 0 0 1 75.834 38.802 A 2.323 2.323 0 0 0 75.443 38.51 Q 75.246 38.391 75.006 38.29 A 4.455 4.455 0 0 0 74.778 38.202 A 5.841 5.841 0 0 1 74.05 38.365 Q 72.057 38.671 70.822 37.245 A 4.636 4.636 0 0 1 70.458 36.762 A 20.77 20.77 0 0 1 69.754 35.569 Q 69.444 34.997 69.212 34.469 A 11.407 11.407 0 0 1 69.066 34.122 Q 68.736 33.297 68.475 32.654 A 147.04 147.04 0 0 0 68.25 32.106 A 15.988 15.988 0 0 0 67.203 30.26 A 12.792 12.792 0 0 0 66.282 29.034 A 36.89 36.89 0 0 0 65.884 30.059 Q 65.513 31.055 65.082 32.346 Q 64.266 34.89 63.258 37.626 Z M 51.834 35.946 L 51.546 36.954 Q 51.45 37.482 51.354 37.938 Q 51.258 38.394 51.162 38.922 Q 49.818 40.458 47.514 40.458 A 7.785 7.785 0 0 1 45.918 40.304 Q 44.56 40.019 43.626 39.21 A 1.248 1.248 0 0 1 43.209 38.593 Q 42.956 37.814 43.338 36.378 A 7.008 7.008 0 0 0 43.489 35.692 Q 43.547 35.357 43.587 34.971 A 16.162 16.162 0 0 0 43.65 34.146 Q 43.722 32.778 43.818 31.866 L 43.818 31.77 A 10.738 10.738 0 0 0 41.687 32.822 A 9.75 9.75 0 0 0 41.226 33.138 A 674.128 674.128 0 0 0 40.825 33.431 Q 40.02 34.019 39.786 34.194 Q 39.498 34.41 39.018 34.53 A 9.047 9.047 0 0 1 38.617 34.621 Q 38.417 34.662 38.237 34.687 A 5.249 5.249 0 0 1 38.154 34.698 Q 37.242 34.746 36.906 34.986 A 30.97 30.97 0 0 1 35.716 36.959 Q 33.788 39.879 32.163 40.476 A 2.692 2.692 0 0 1 31.914 40.554 A 6.232 6.232 0 0 1 30.058 40.842 A 6.043 6.043 0 0 1 29.13 40.77 Q 27.738 40.554 26.922 39.114 A 1.746 1.746 0 0 1 26.471 38.369 Q 25.849 36.476 27.6 31.497 A 47.074 47.074 0 0 1 27.69 31.242 Q 28.938 27.834 31.266 23.058 A 126.284 126.284 0 0 1 33.271 19.113 Q 34.539 16.728 35.754 14.73 A 68.439 68.439 0 0 1 41.12 7.1 A 54.02 54.02 0 0 1 45.978 1.866 Q 46.89 1.482 47.946 0.978 A 5.912 5.912 0 0 1 49.127 0.555 A 4.91 4.91 0 0 1 50.034 0.426 A 6.377 6.377 0 0 1 50.331 0.419 Q 51.029 0.419 51.759 0.57 A 8.172 8.172 0 0 1 52.17 0.666 Q 53.274 0.954 54.042 1.53 Q 55.818 2.874 54.57 4.938 A 4.335 4.335 0 0 1 55.769 5.85 A 3.795 3.795 0 0 1 56.634 7.482 Q 55.674 12.858 54.906 18.162 Q 54.138 23.466 53.418 27.042 Q 52.698 30.618 52.434 32.394 Q 52.17 34.17 51.834 35.946 Z M 106.842 35.946 L 106.554 36.954 Q 106.458 37.482 106.362 37.938 Q 106.266 38.394 106.17 38.922 Q 104.826 40.458 102.522 40.458 A 7.785 7.785 0 0 1 100.926 40.304 Q 99.568 40.019 98.634 39.21 A 1.248 1.248 0 0 1 98.217 38.593 Q 97.964 37.814 98.346 36.378 A 7.008 7.008 0 0 0 98.497 35.692 Q 98.555 35.357 98.595 34.971 A 16.162 16.162 0 0 0 98.658 34.146 Q 98.73 32.778 98.826 31.866 L 98.826 31.77 A 10.738 10.738 0 0 0 96.695 32.822 A 9.75 9.75 0 0 0 96.234 33.138 A 674.128 674.128 0 0 0 95.833 33.431 Q 95.028 34.019 94.794 34.194 Q 94.506 34.41 94.026 34.53 A 9.047 9.047 0 0 1 93.625 34.621 Q 93.425 34.662 93.245 34.687 A 5.249 5.249 0 0 1 93.162 34.698 Q 92.25 34.746 91.914 34.986 A 30.97 30.97 0 0 1 90.724 36.959 Q 88.796 39.879 87.171 40.476 A 2.692 2.692 0 0 1 86.922 40.554 A 6.232 6.232 0 0 1 85.066 40.842 A 6.043 6.043 0 0 1 84.138 40.77 Q 82.746 40.554 81.93 39.114 A 1.746 1.746 0 0 1 81.479 38.369 Q 80.857 36.476 82.608 31.497 A 47.074 47.074 0 0 1 82.698 31.242 Q 83.946 27.834 86.274 23.058 A 126.284 126.284 0 0 1 88.279 19.113 Q 89.547 16.728 90.762 14.73 A 68.439 68.439 0 0 1 96.128 7.1 A 54.02 54.02 0 0 1 100.986 1.866 Q 101.898 1.482 102.954 0.978 A 5.912 5.912 0 0 1 104.135 0.555 A 4.91 4.91 0 0 1 105.042 0.426 A 6.377 6.377 0 0 1 105.339 0.419 Q 106.037 0.419 106.767 0.57 A 8.172 8.172 0 0 1 107.178 0.666 Q 108.282 0.954 109.05 1.53 Q 110.826 2.874 109.578 4.938 A 4.335 4.335 0 0 1 110.777 5.85 A 3.795 3.795 0 0 1 111.642 7.482 Q 110.682 12.858 109.914 18.162 Q 109.146 23.466 108.426 27.042 Q 107.706 30.618 107.442 32.394 Q 107.178 34.17 106.842 35.946 Z M 154.266 35.946 L 153.978 36.954 Q 153.882 37.482 153.786 37.938 Q 153.69 38.394 153.594 38.922 Q 152.25 40.458 149.946 40.458 A 7.785 7.785 0 0 1 148.35 40.304 Q 146.992 40.019 146.058 39.21 A 1.248 1.248 0 0 1 145.641 38.593 Q 145.388 37.814 145.77 36.378 A 7.008 7.008 0 0 0 145.921 35.692 Q 145.979 35.357 146.019 34.971 A 16.162 16.162 0 0 0 146.082 34.146 Q 146.154 32.778 146.25 31.866 L 146.25 31.77 A 10.738 10.738 0 0 0 144.119 32.822 A 9.75 9.75 0 0 0 143.658 33.138 A 674.128 674.128 0 0 0 143.257 33.431 Q 142.452 34.019 142.218 34.194 Q 141.93 34.41 141.45 34.53 A 9.047 9.047 0 0 1 141.049 34.621 Q 140.849 34.662 140.669 34.687 A 5.249 5.249 0 0 1 140.586 34.698 Q 139.674 34.746 139.338 34.986 A 30.97 30.97 0 0 1 138.148 36.959 Q 136.22 39.879 134.595 40.476 A 2.692 2.692 0 0 1 134.346 40.554 A 6.232 6.232 0 0 1 132.49 40.842 A 6.043 6.043 0 0 1 131.562 40.77 Q 130.17 40.554 129.354 39.114 A 1.746 1.746 0 0 1 128.903 38.369 Q 128.281 36.476 130.032 31.497 A 47.074 47.074 0 0 1 130.122 31.242 Q 131.37 27.834 133.698 23.058 A 126.284 126.284 0 0 1 135.703 19.113 Q 136.971 16.728 138.186 14.73 A 68.439 68.439 0 0 1 143.552 7.1 A 54.02 54.02 0 0 1 148.41 1.866 Q 149.322 1.482 150.378 0.978 A 5.912 5.912 0 0 1 151.559 0.555 A 4.91 4.91 0 0 1 152.466 0.426 A 6.377 6.377 0 0 1 152.763 0.419 Q 153.461 0.419 154.191 0.57 A 8.172 8.172 0 0 1 154.602 0.666 Q 155.706 0.954 156.474 1.53 Q 158.25 2.874 157.002 4.938 A 4.335 4.335 0 0 1 158.201 5.85 A 3.795 3.795 0 0 1 159.066 7.482 Q 158.106 12.858 157.338 18.162 Q 156.57 23.466 155.85 27.042 Q 155.13 30.618 154.866 32.394 Q 154.602 34.17 154.266 35.946 Z M 123.066 19.002 L 127.29 18.57 Q 128.298 18.474 129.042 18.978 Q 129.786 19.482 130.098 20.202 Q 130.312 20.695 130.312 21.176 A 2.176 2.176 0 0 1 130.266 21.618 A 1.433 1.433 0 0 1 129.618 22.55 A 2.09 2.09 0 0 1 129.402 22.674 A 4.566 4.566 0 0 0 129.056 22.865 Q 128.722 23.07 128.551 23.275 A 0.957 0.957 0 0 0 128.466 23.394 A 6.291 6.291 0 0 0 128.23 23.824 A 5.109 5.109 0 0 0 128.106 24.09 A 4.452 4.452 0 0 1 127.838 24.615 A 5.105 5.105 0 0 1 127.746 24.762 A 0.959 0.959 0 0 1 127.562 24.967 Q 127.363 25.139 127.019 25.297 A 4.53 4.53 0 0 1 126.81 25.386 Q 125.274 26.106 120.906 26.538 Q 120.723 27.089 120.44 27.795 A 37.836 37.836 0 0 1 120.258 28.242 Q 119.85 29.226 119.418 30.282 Q 118.17 33.498 118.002 34.17 Q 117.852 34.771 117.76 35.18 A 23.478 23.478 0 0 0 117.738 35.274 Q 117.458 36.537 117.223 37.025 A 1.888 1.888 0 0 1 117.21 37.05 A 4.072 4.072 0 0 1 114.929 39.734 A 6.179 6.179 0 0 1 114.042 40.074 Q 111.738 40.746 109.914 39.594 Q 108.194 38.545 108.528 36.615 A 4.7 4.7 0 0 1 108.666 36.042 Q 109.29 33.354 111.066 27.45 Q 112.702 22.013 113.442 19.548 A 3202.838 3202.838 0 0 0 113.562 19.146 A 572.018 572.018 0 0 0 114.238 16.735 Q 115.337 12.774 115.674 11.274 A 146.197 146.197 0 0 1 116.203 9.602 Q 117.018 7.081 117.518 5.929 A 6.766 6.766 0 0 1 117.81 5.322 Q 118.458 4.17 118.938 3.714 A 4.276 4.276 0 0 1 119.276 3.429 Q 119.631 3.156 120.159 2.835 A 17.798 17.798 0 0 1 120.498 2.634 Q 121.578 2.01 122.826 1.674 Q 124.074 1.338 125.322 1.218 Q 126.57 1.098 127.866 1.026 A 13.549 13.549 0 0 0 129.212 0.88 Q 129.896 0.772 130.646 0.594 A 22.337 22.337 0 0 0 130.746 0.57 Q 131.37 0.57 131.874 0.474 A 11.367 11.367 0 0 1 132.738 0.343 A 10.366 10.366 0 0 1 132.858 0.33 Q 133.962 0.234 135.042 0.57 A 3.212 3.212 0 0 1 135.939 1.001 A 2.714 2.714 0 0 1 136.674 1.77 A 3.528 3.528 0 0 1 137.222 3.533 A 4.286 4.286 0 0 1 137.226 3.738 A 6.082 6.082 0 0 1 137.082 5.026 A 8.097 8.097 0 0 1 136.77 6.09 A 10.142 10.142 0 0 1 135.599 8.346 A 11.318 11.318 0 0 1 135.498 8.49 A 10.149 10.149 0 0 1 132.738 11.17 A 9.579 9.579 0 0 1 131.034 12.042 Q 129.162 12.618 128.346 12.618 A 5.462 5.462 0 0 1 127.973 12.606 Q 127.453 12.571 127.218 12.426 A 3.805 3.805 0 0 1 127.111 12.358 Q 126.897 12.216 126.858 12.138 A 0.033 0.033 0 0 0 126.846 12.124 Q 126.79 12.091 126.59 12.376 A 4.682 4.682 0 0 0 126.522 12.474 Q 126.09 13.098 125.898 13.866 A 6.968 6.968 0 0 1 125.787 14.266 Q 125.639 14.735 125.466 14.994 A 2.567 2.567 0 0 0 125.338 15.213 Q 125.126 15.614 124.818 16.41 A 6.621 6.621 0 0 1 124.389 17.321 A 4.932 4.932 0 0 1 123.786 18.162 Q 123.162 18.858 123.066 19.002 Z M 190.506 42.714 L 190.458 42.714 A 0.075 0.075 0 0 1 190.43 42.708 Q 190.385 42.689 190.314 42.618 Q 188.93 41.979 188.313 41.089 A 2.731 2.731 0 0 1 187.818 39.498 Q 187.818 37.77 189.594 36.042 A 8.677 8.677 0 0 1 191.284 34.757 Q 192.753 33.915 194.352 33.915 A 6.191 6.191 0 0 1 194.778 33.93 Q 195.093 33.975 196.206 34.272 A 75.817 75.817 0 0 1 196.362 34.314 Q 196.474 34.426 196.528 34.451 A 0.066 0.066 0 0 0 196.554 34.458 A 6.295 6.295 0 0 1 197.472 35.312 Q 199.026 37.108 197.946 39.306 A 5.789 5.789 0 0 1 196.741 40.915 A 7.048 7.048 0 0 1 196.242 41.346 A 8.501 8.501 0 0 1 195.185 42.063 A 6.323 6.323 0 0 1 193.986 42.594 Q 192.858 42.954 192.474 42.954 A 2.63 2.63 0 0 1 192.288 42.946 Q 191.833 42.912 190.705 42.744 A 82.737 82.737 0 0 1 190.506 42.714 Z M 46.122 14.826 L 44.298 17.562 Q 43.29 20.442 42.282 22.866 Q 41.274 25.29 40.554 27.114 L 44.346 26.97 Q 44.73 23.898 45.21 20.874 Q 45.69 17.85 46.122 14.826 Z M 101.13 14.826 L 99.306 17.562 Q 98.298 20.442 97.29 22.866 Q 96.282 25.29 95.562 27.114 L 99.354 26.97 Q 99.738 23.898 100.218 20.874 Q 100.698 17.85 101.13 14.826 Z M 148.554 14.826 L 146.73 17.562 Q 145.722 20.442 144.714 22.866 Q 143.706 25.29 142.986 27.114 L 146.778 26.97 Q 147.162 23.898 147.642 20.874 Q 148.122 17.85 148.554 14.826 Z M 70.218 17.658 L 70.89 16.986 L 71.706 16.602 Q 72.57 16.122 73.29 15.738 Q 74.01 15.354 74.586 14.778 A 5.375 5.375 0 0 0 75.311 13.855 Q 75.924 12.889 76.43 11.406 A 18.896 18.896 0 0 0 76.506 11.178 A 2.88 2.88 0 0 1 76.663 10.252 A 3.244 3.244 0 0 1 76.674 10.218 A 4.15 4.15 0 0 0 76.89 9.26 A 4.46 4.46 0 0 0 76.89 9.258 Q 77.082 8.204 76.03 7.772 A 2.594 2.594 0 0 0 76.026 7.77 A 1.057 1.057 0 0 0 75.921 7.765 Q 75.196 7.765 74.212 8.725 A 9.676 9.676 0 0 0 73.626 9.354 Q 73.338 9.69 73.194 9.69 Q 72.282 11.754 71.946 12.57 Q 71.274 14.202 70.458 16.17 Q 70.314 17.226 70.218 17.658 Z M 44.346 27.066 L 44.346 27.018 Q 43.722 27.066 43.194 27.114 A 15.211 15.211 0 0 0 43.119 27.121 Q 42.718 27.16 42.967 27.162 A 3.741 3.741 0 0 0 43.002 27.162 Q 43.674 27.162 44.346 27.066 Z M 99.354 27.066 L 99.354 27.018 Q 98.73 27.066 98.202 27.114 A 15.211 15.211 0 0 0 98.127 27.121 Q 97.726 27.16 97.975 27.162 A 3.741 3.741 0 0 0 98.01 27.162 Q 98.682 27.162 99.354 27.066 Z M 146.778 27.066 L 146.778 27.018 Q 146.154 27.066 145.626 27.114 A 15.211 15.211 0 0 0 145.551 27.121 Q 145.15 27.16 145.399 27.162 A 3.741 3.741 0 0 0 145.434 27.162 Q 146.106 27.162 146.778 27.066 Z" vector-effect="non-scaling-stroke"/></g></svg>