<svg viewBox="0 0 418 145" fill="none" xmlns="http://www.w3.org/2000/svg">
<g opacity="0.9">
<path opacity="0.1" d="M33.7456 10.7612C27.4309 14.9677 5.92245 29 0 29V145H418V58C411.894 58 389.734 35.7242 384.351 30.219C383.59 29.4407 382.551 29 381.463 29H349.78C348.845 29 347.94 28.6724 347.221 28.0741L316.305 2.33496C314.716 1.01221 312.381 1.11812 310.918 2.57927L279.422 34.0455C278.927 34.5398 278.311 34.8958 277.636 35.0778L245.612 43.7097C244.531 44.0009 243.378 43.8263 242.433 43.2282L211.163 23.4512C209.844 22.6173 208.161 22.626 206.852 23.4735L174.733 44.257C173.989 44.7387 173.105 44.9594 172.222 44.8845L140.183 42.1695C139.517 42.1129 138.874 41.89 138.316 41.521L106.913 20.7706C106.158 20.2717 105.256 20.0435 104.355 20.1235L70.6158 23.1158C69.9918 23.1712 69.3635 23.0792 68.7815 22.8472L37.4742 10.3701C36.2398 9.87816 34.8515 10.0245 33.7456 10.7612Z" fill="url(#paint0_linear_62_315419)"/>
<path d="M0 29C5.91199 29 27.355 14.7172 33.712 10.3927C34.8346 9.62899 36.2585 9.47823 37.5145 9.99409L68.7716 22.8324C69.3598 23.074 69.9972 23.1719 70.6308 23.1179L105.822 20.1211C106.741 20.0428 107.659 20.2847 108.421 20.8059L138.46 41.369C139.032 41.7607 139.697 41.9969 140.388 42.0545L172.778 44.751C173.677 44.8259 174.576 44.5944 175.327 44.094L206.783 23.1435C208.126 22.249 209.874 22.249 211.217 23.1435L242.289 43.8378C243.268 44.4903 244.486 44.6782 245.616 44.3514L277.678 35.0857C278.327 34.8983 278.917 34.5498 279.395 34.0727L310.918 2.57927C312.381 1.11813 314.716 1.01221 316.305 2.33496L347.221 28.0741C347.94 28.6724 348.845 29 349.78 29H381.463C382.551 29 383.59 29.4407 384.351 30.219C389.734 35.7242 411.894 58 418 58" stroke="#6788F3" stroke-width="2" stroke-linejoin="round"/>
</g>
<defs>
<linearGradient id="paint0_linear_62_315419" x1="209" y1="0" x2="209" y2="145" gradientUnits="userSpaceOnUse">
<stop stop-color="#004DE5"/>
<stop offset="1" stop-color="#004DE5" stop-opacity="0"/>
</linearGradient>
</defs>
</svg>