<svg width="15" height="16" viewBox="0 0 15 16" fill="none" xmlns="http://www.w3.org/2000/svg">
<g clip-path="url(#clip0_110_336252)">
<path d="M8.4375 6.8125C8.4375 6.89538 8.47042 6.97487 8.52903 7.03347C8.58763 7.09208 8.66712 7.125 8.75 7.125H14.6875C14.6875 5.4674 14.029 3.87769 12.8569 2.70558C11.6848 1.53348 10.0951 0.875 8.4375 0.875V6.8125Z" fill="#9FEAFF" stroke="#00303E" stroke-linecap="round" stroke-linejoin="round"/>
<path d="M12.8613 12.7944C13.4421 12.2145 13.9025 11.5255 14.2161 10.7671C14.5297 10.0086 14.6904 9.19571 14.6888 8.375H8.75133C8.57945 8.375 8.5382 8.47437 8.65945 8.59562L12.8613 12.7944Z" fill="#DFF9FF"/>
<path d="M13.1245 8.375C12.9589 9.56816 12.4501 10.6875 11.6602 11.5969L12.8583 12.7944C13.4393 12.2146 13.8999 11.5256 14.2137 10.7672C14.5276 10.0088 14.6884 9.1958 14.687 8.375H13.1245Z" fill="#9FEAFF"/>
<path d="M12.8613 12.7944C13.4421 12.2145 13.9025 11.5255 14.2161 10.7671C14.5297 10.0086 14.6904 9.19571 14.6888 8.375H8.75133C8.57945 8.375 8.5382 8.47437 8.65945 8.59562L12.8613 12.7944Z" stroke="#00303E" stroke-linecap="round" stroke-linejoin="round"/>
<path d="M6.56259 2.75C5.53476 2.74999 4.5228 3.00346 3.61633 3.48796C2.70987 3.97246 1.93688 4.67305 1.36584 5.52765C0.794808 6.38225 0.443349 7.36449 0.3426 8.38736C0.241851 9.41024 0.39492 10.4422 0.78825 11.3918C1.18158 12.3413 1.80303 13.1793 2.59755 13.8313C3.39207 14.4834 4.33513 14.9294 5.34321 15.1299C6.35129 15.3304 7.39326 15.2792 8.37682 14.9809C9.36039 14.6825 10.2552 14.1462 10.982 13.4194L6.78321 9.22062C6.65121 9.07316 6.57339 8.88512 6.56259 8.6875V2.75Z" fill="#DFF9FF"/>
<path d="M3.43761 11.957C2.66833 11.5128 2.00275 10.9094 1.48539 10.1873C0.968032 9.46511 0.610811 8.64083 0.437612 7.76953C0.174859 9.08425 0.341839 10.4486 0.913895 11.6612C1.48595 12.8737 2.43276 13.8702 3.61451 14.5034C4.79626 15.1366 6.15032 15.373 7.47674 15.1778C8.80315 14.9825 10.0316 14.3658 10.9807 13.4189L9.57574 12.0133C8.63435 12.5332 7.57466 12.8012 6.49929 12.7914C5.42391 12.7815 4.36931 12.4941 3.43761 11.957Z" fill="#9FEAFF"/>
<path d="M6.56259 2.75C5.53476 2.74999 4.5228 3.00346 3.61633 3.48796C2.70987 3.97246 1.93688 4.67304 1.36584 5.52765C0.794808 6.38225 0.443349 7.36449 0.3426 8.38736C0.241851 9.41024 0.39492 10.4422 0.78825 11.3918C1.18158 12.3413 1.80303 13.1793 2.59755 13.8313C3.39207 14.4834 4.33513 14.9294 5.34321 15.1299C6.35129 15.3304 7.39326 15.2792 8.37682 14.9809C9.36039 14.6825 10.2552 14.1462 10.982 13.4194L6.78321 9.22062C6.65121 9.07316 6.57339 8.88512 6.56259 8.6875V2.75Z" stroke="#00303E" stroke-linecap="round" stroke-linejoin="round"/>
</g>
<defs>
<clipPath id="clip0_110_336252">
<rect width="15" height="15" fill="white" transform="translate(0 0.5625)"/>
</clipPath>
</defs>
</svg>
