<svg width="15" height="14" viewBox="0 0 15 14" fill="none" xmlns="http://www.w3.org/2000/svg">
<g clip-path="url(#clip0_110_336197)">
<path d="M2.8125 6.45443C3.15244 6.45443 3.48474 6.36034 3.76739 6.18408C4.05003 6.00781 4.27033 5.75727 4.40042 5.46415C4.53051 5.17103 4.56454 4.84848 4.49822 4.5373C4.43191 4.22613 4.26821 3.94029 4.02784 3.71594C3.78747 3.4916 3.48122 3.33882 3.14781 3.27692C2.81441 3.21502 2.46882 3.24679 2.15476 3.3682C1.8407 3.48962 1.57227 3.69523 1.38341 3.95903C1.19455 4.22284 1.09375 4.53299 1.09375 4.85026C1.09375 5.06092 1.13821 5.26952 1.22458 5.46415C1.31096 5.65878 1.43756 5.83562 1.59716 5.98458C1.91949 6.28542 2.35666 6.45443 2.8125 6.45443Z" fill="#DFF9FF" stroke="#00303E" stroke-linecap="round" stroke-linejoin="round"/>
<path d="M5 9.07682C5 8.53534 4.76953 8.01603 4.3593 7.63315C3.94906 7.25026 3.39266 7.03516 2.8125 7.03516C2.23234 7.03516 1.67594 7.25026 1.2657 7.63315C0.855468 8.01603 0.625 8.53534 0.625 9.07682V10.8268H1.61437L1.875 13.7435H3.75L4.01062 10.8268H5V9.07682Z" fill="#6788F3" stroke="#00303E" stroke-linecap="round" stroke-linejoin="round"/>
<path d="M12.1875 6.45443C12.5274 6.45443 12.8597 6.36034 13.1424 6.18408C13.425 6.00781 13.6453 5.75727 13.7754 5.46415C13.9055 5.17103 13.9395 4.84848 13.8732 4.5373C13.8069 4.22613 13.6432 3.94029 13.4028 3.71594C13.1625 3.4916 12.8562 3.33882 12.5228 3.27692C12.1894 3.21502 11.8438 3.24679 11.5298 3.3682C11.2157 3.48962 10.9473 3.69523 10.7584 3.95903C10.5696 4.22284 10.4688 4.53299 10.4688 4.85026C10.4688 5.06092 10.5132 5.26952 10.5996 5.46415C10.686 5.65878 10.8126 5.83562 10.9722 5.98458C11.2945 6.28542 11.7317 6.45443 12.1875 6.45443Z" fill="#DFF9FF" stroke="#00303E" stroke-linecap="round" stroke-linejoin="round"/>
<path d="M14.375 9.07682C14.375 8.53534 14.1445 8.01603 13.7343 7.63315C13.3241 7.25026 12.7677 7.03516 12.1875 7.03516C11.6073 7.03516 11.0509 7.25026 10.6407 7.63315C10.2305 8.01603 10 8.53534 10 9.07682V10.8268H10.9894L11.25 13.7435H13.125L13.3856 10.8268H14.375V9.07682Z" fill="#6788F3" stroke="#00303E" stroke-linecap="round" stroke-linejoin="round"/>
<path fill-rule="evenodd" clip-rule="evenodd" d="M8.54167 0.582031C9.34708 0.582031 10 1.20883 10 1.98203C10 2.73766 9.37642 3.35346 8.59634 3.38107L8.54167 3.38203H7.32639V3.8487H8.29861C8.43285 3.8487 8.54167 3.95317 8.54167 4.08203C8.54167 4.2109 8.43285 4.31536 8.29861 4.31536H7.32639V5.01536C7.32639 5.14423 7.21757 5.2487 7.08333 5.2487C6.9491 5.2487 6.84028 5.14423 6.84028 5.01536V4.31536H5.86806C5.73382 4.31536 5.625 4.2109 5.625 4.08203C5.625 3.95317 5.73382 3.8487 5.86806 3.8487H6.84028V3.38203H5.86806C5.73382 3.38203 5.625 3.27756 5.625 3.1487C5.625 3.02904 5.71883 2.93041 5.83971 2.91693L5.86806 2.91536H6.84028V0.815365C6.84028 0.686498 6.9491 0.582031 7.08333 0.582031H8.54167ZM8.54167 1.0487H7.32639V2.91536H8.54167C9.07861 2.91536 9.51389 2.4975 9.51389 1.98203C9.51389 1.48219 9.10459 1.07411 8.59019 1.04984L8.54167 1.0487Z" fill="#00303E"/>
</g>
<defs>
<clipPath id="clip0_110_336197">
<rect width="15" height="14" fill="white"/>
</clipPath>
</defs>
</svg>
