<svg width="14" height="16" viewBox="0 0 14 16" fill="none" xmlns="http://www.w3.org/2000/svg">
<path d="M4.95703 5.38672H9.04036" stroke="#00303E" stroke-linecap="round" stroke-linejoin="round"/>
<path d="M9.18239 1.58325C9.21177 1.52233 9.22374 1.45243 9.21662 1.38335C9.20949 1.31426 9.18364 1.24945 9.14267 1.198C9.1017 1.14656 9.04768 1.11104 8.98817 1.09644C8.92866 1.08184 8.86664 1.08889 8.8108 1.11659L7.5858 1.71659L7.27372 0.823255C7.25212 0.761291 7.21475 0.708157 7.16645 0.670724C7.11815 0.633291 7.06112 0.613281 7.00276 0.613281C6.9444 0.613281 6.88738 0.633291 6.83908 0.670724C6.79077 0.708157 6.7534 0.761291 6.7318 0.823255L6.41797 1.71859L5.19297 1.11859C5.13714 1.09089 5.07512 1.08384 5.01561 1.09844C4.9561 1.11304 4.90207 1.14856 4.8611 1.2C4.82014 1.25145 4.79428 1.31626 4.78716 1.38535C4.78004 1.45443 4.79201 1.52433 4.82139 1.58525C5.16266 2.25947 5.40188 2.99469 5.52897 3.75992C5.53783 3.84098 5.57243 3.9155 5.6262 3.96933C5.67997 4.02316 5.74916 4.05255 5.82064 4.05192H8.19189C8.26337 4.05255 8.33256 4.02316 8.38633 3.96933C8.44009 3.9155 8.47469 3.84098 8.48355 3.75992C8.6076 2.99438 8.84429 2.2584 9.18355 1.58325H9.18239Z" fill="#6788F3" stroke="#00303E" stroke-linecap="round" stroke-linejoin="round"/>
<path d="M8.70392 6.78932C8.65343 6.74605 8.59202 6.72266 8.52892 6.72266H5.4775C5.41439 6.72266 5.35299 6.74605 5.3025 6.78932C4.03842 7.89199 2.625 10.0267 2.625 11.7227C2.625 14.1167 3.79167 15.3893 7 15.3893C10.2083 15.3893 11.375 14.1167 11.375 11.7227C11.375 10.0267 9.96742 7.89199 8.70392 6.78932Z" fill="#DFF9FF"/>
<path d="M7 12.3348C4.641 12.3348 3.38333 11.6461 2.88633 10.3301C2.72415 10.771 2.63552 11.2427 2.625 11.7208C2.625 14.1148 3.79167 15.3875 7 15.3875C10.2083 15.3875 11.375 14.1148 11.375 11.7208C11.3646 11.2421 11.2761 10.7698 11.1142 10.3281C10.6167 11.6448 9.36017 12.3348 7 12.3348Z" fill="#6788F3"/>
<path d="M8.70392 6.78932C8.65343 6.74605 8.59202 6.72266 8.52892 6.72266H5.4775C5.41439 6.72266 5.35299 6.74605 5.3025 6.78932C4.03842 7.89199 2.625 10.0267 2.625 11.7227C2.625 14.1167 3.79167 15.3893 7 15.3893C10.2083 15.3893 11.375 14.1167 11.375 11.7227C11.375 10.0267 9.96742 7.89199 8.70392 6.78932Z" stroke="#00303E" stroke-linecap="round" stroke-linejoin="round"/>
<path fill-rule="evenodd" clip-rule="evenodd" d="M7.39019 8.66797C8.14191 8.66797 8.7513 9.38431 8.7513 10.268C8.7513 11.1315 8.1693 11.8353 7.44122 11.8669L7.39019 11.868H6.25593V12.4013H7.16334C7.28863 12.4013 7.39019 12.5207 7.39019 12.668C7.39019 12.8152 7.28863 12.9346 7.16334 12.9346H6.25593V13.7346C6.25593 13.8819 6.15437 14.0013 6.02908 14.0013C5.90379 14.0013 5.80223 13.8819 5.80223 13.7346V12.9346H4.89482C4.76953 12.9346 4.66797 12.8152 4.66797 12.668C4.66797 12.5207 4.76953 12.4013 4.89482 12.4013H5.80223V11.868H4.89482C4.76953 11.868 4.66797 11.7486 4.66797 11.6013C4.66797 11.4645 4.75554 11.3518 4.86836 11.3364L4.89482 11.3346H5.80223V8.93464C5.80223 8.78736 5.90379 8.66797 6.02908 8.66797H7.39019ZM7.39019 9.2013H6.25593V11.3346H7.39019C7.89134 11.3346 8.2976 10.8571 8.2976 10.268C8.2976 9.69672 7.91559 9.23035 7.43548 9.20261L7.39019 9.2013Z" fill="#00303E"/>
</svg>
