<svg width="15" height="16" viewBox="0 0 15 16" fill="none" xmlns="http://www.w3.org/2000/svg">
<path d="M3.125 12.8398C2.46196 12.8398 1.82607 12.5764 1.35723 12.1076C0.888392 11.6388 0.625 11.0029 0.625 10.3398C0.652032 9.58284 0.865913 8.84429 1.24759 8.18999C1.62926 7.5357 2.16687 6.98598 2.8125 6.58984L2.03875 5.23609C1.99766 5.16355 1.97816 5.08077 1.98254 4.99752C1.98691 4.91426 2.01498 4.83399 2.06345 4.76616C2.11191 4.69832 2.17875 4.64574 2.25609 4.61462C2.33343 4.58349 2.41806 4.57511 2.5 4.59046C2.90949 4.67234 3.33114 4.67234 3.74063 4.59046C3.8229 4.57407 3.90815 4.58168 3.98622 4.61238C4.06428 4.64308 4.13188 4.69558 4.18095 4.76362C4.23002 4.83166 4.2585 4.91237 4.26298 4.99614C4.26747 5.07991 4.24777 5.1632 4.20625 5.23609L3.4375 6.58984H3.4175C4.06332 6.98577 4.60108 7.53544 4.98278 8.18978C5.36448 8.84412 5.57824 9.58278 5.605 10.3398C5.605 11.0029 5.34161 11.6388 4.87277 12.1076C4.40393 12.5764 3.76804 12.8398 3.105 12.8398H3.125Z" fill="#DFF9FF"/>
<path d="M0.62504 10.3373C0.649682 9.64707 0.829793 8.97125 1.15195 8.36027C1.47411 7.74928 1.93001 7.21888 2.48567 6.80859C2.11067 7.45874 1.901 8.191 1.87504 8.94109C1.87503 9.60241 2.13705 10.2368 2.60373 10.7053C3.07041 11.1739 3.70373 11.4384 4.36504 11.4411C4.74404 11.4407 5.11793 11.3537 5.45817 11.1867C5.2609 11.7404 4.87403 12.2064 4.36609 12.5022C3.85814 12.798 3.26189 12.9044 2.68298 12.8027C2.10406 12.7009 1.57984 12.3976 1.20317 11.9464C0.8265 11.4951 0.621697 10.9251 0.62504 10.3373Z" fill="#6788F3"/>
<path d="M3.125 12.8398C2.46196 12.8398 1.82607 12.5764 1.35723 12.1076C0.888392 11.6388 0.625 11.0029 0.625 10.3398C0.652032 9.58284 0.865913 8.84429 1.24759 8.18999C1.62926 7.5357 2.16687 6.98598 2.8125 6.58984L2.03875 5.23609C1.99766 5.16355 1.97816 5.08077 1.98254 4.99752C1.98691 4.91426 2.01498 4.83399 2.06345 4.76616C2.11191 4.69832 2.17875 4.64574 2.25609 4.61462C2.33343 4.58349 2.41806 4.57511 2.5 4.59046C2.90949 4.67234 3.33114 4.67234 3.74063 4.59046C3.8229 4.57407 3.90815 4.58168 3.98621 4.61238C4.06428 4.64308 4.13188 4.69558 4.18095 4.76362C4.23002 4.83166 4.25849 4.91237 4.26298 4.99614C4.26747 5.07991 4.24777 5.1632 4.20625 5.23609L3.4375 6.58984" stroke="#00303E" stroke-linecap="round" stroke-linejoin="round"/>
<path d="M1.875 6.58984H3.4375" stroke="#00303E" stroke-linecap="round" stroke-linejoin="round"/>
<path d="M11.8745 12.8398C12.5376 12.8398 13.1735 12.5764 13.6423 12.1076C14.1111 11.6388 14.3745 11.0029 14.3745 10.3398C14.3475 9.58284 14.1336 8.84429 13.7519 8.18999C13.3703 7.5357 12.8327 6.98598 12.187 6.58984L12.9608 5.23609C13.0019 5.16355 13.0214 5.08077 13.017 4.99752C13.0126 4.91426 12.9845 4.83399 12.9361 4.76616C12.8876 4.69832 12.8208 4.64574 12.7434 4.61462C12.6661 4.58349 12.5815 4.57511 12.4995 4.59046C12.09 4.67234 11.6684 4.67234 11.2589 4.59046C11.1766 4.57407 11.0914 4.58168 11.0133 4.61238C10.9352 4.64308 10.8677 4.69558 10.8186 4.76362C10.7695 4.83166 10.741 4.91237 10.7366 4.99614C10.7321 5.07991 10.7518 5.1632 10.7933 5.23609L11.562 6.58984H11.582C10.9362 6.98577 10.3985 7.53544 10.0168 8.18978C9.63505 8.84412 9.42129 9.58278 9.39453 10.3398C9.39453 11.0029 9.65792 11.6388 10.1268 12.1076C10.5956 12.5764 11.2315 12.8398 11.8945 12.8398H11.8745Z" fill="#DFF9FF"/>
<path d="M14.3761 10.3373C14.3515 9.64707 14.1713 8.97125 13.8492 8.36027C13.527 7.74928 13.0711 7.21888 12.5155 6.80859C12.8905 7.45874 13.1001 8.191 13.1261 8.94109C13.1261 9.60241 12.8641 10.2368 12.3974 10.7053C11.9307 11.1739 11.2974 11.4384 10.6361 11.4411C10.2571 11.4407 9.88321 11.3537 9.54297 11.1867C9.74023 11.7404 10.1271 12.2064 10.635 12.5022C11.143 12.798 11.7392 12.9044 12.3182 12.8027C12.8971 12.7009 13.4213 12.3976 13.798 11.9464C14.1746 11.4951 14.3794 10.9251 14.3761 10.3373Z" fill="#6788F3"/>
<path d="M11.8769 12.8398C12.5399 12.8398 13.1758 12.5764 13.6447 12.1076C14.1135 11.6388 14.3769 11.0029 14.3769 10.3398C14.3499 9.58284 14.136 8.84429 13.7543 8.18999C13.3726 7.5357 12.835 6.98598 12.1894 6.58984L12.9631 5.23609C13.0042 5.16355 13.0237 5.08077 13.0194 4.99752C13.015 4.91426 12.9869 4.83399 12.9384 4.76616C12.89 4.69832 12.8231 4.64574 12.7458 4.61462C12.6685 4.58349 12.5838 4.57511 12.5019 4.59046C12.0924 4.67234 11.6708 4.67234 11.2613 4.59046C11.179 4.57407 11.0937 4.58168 11.0157 4.61238C10.9376 4.64308 10.87 4.69558 10.8209 4.76362C10.7719 4.83166 10.7434 4.91237 10.7389 4.99614C10.7344 5.07991 10.7541 5.1632 10.7956 5.23609L11.5644 6.58984" stroke="#00303E" stroke-linecap="round" stroke-linejoin="round"/>
<path d="M13.125 6.58984H11.5625" stroke="#00303E" stroke-linecap="round" stroke-linejoin="round"/>
<path d="M8.75 5.96125C10 6.82688 11.25 8.14875 11.25 10.0238C11.2067 10.9762 10.7877 11.8727 10.0849 12.517C9.38208 13.1612 8.45262 13.5008 7.5 13.4613C6.54738 13.5008 5.61792 13.1612 4.91509 12.517C4.21226 11.8727 3.79332 10.9762 3.75 10.0238C3.75 8.14875 5 6.82688 6.25 5.96125L5.30062 4.06063C5.23919 3.94051 5.21827 3.80375 5.24099 3.67077C5.2637 3.53778 5.32884 3.41572 5.42667 3.32281C5.5245 3.22991 5.64976 3.17116 5.78374 3.15533C5.91771 3.1395 6.05322 3.16745 6.17 3.235C6.27904 3.29745 6.40716 3.31788 6.53022 3.29244C6.65327 3.267 6.76278 3.19745 6.83812 3.09688L6.96813 2.92375C7.03029 2.84071 7.11095 2.77329 7.20371 2.72686C7.29646 2.68043 7.39877 2.65625 7.5025 2.65625C7.60623 2.65625 7.70854 2.68043 7.80129 2.72686C7.89405 2.77329 7.97471 2.84071 8.03688 2.92375L8.16688 3.09688C8.24224 3.19761 8.35186 3.26727 8.47507 3.29271C8.59827 3.31816 8.72652 3.29763 8.83563 3.235C8.9524 3.16771 9.0878 3.13997 9.22162 3.15591C9.35545 3.17186 9.48054 3.23064 9.57823 3.32348C9.67593 3.41632 9.74099 3.53826 9.76372 3.6711C9.78646 3.80395 9.76564 3.94058 9.70438 4.06063L8.75 5.96125Z" fill="#DFF9FF"/>
<path d="M7.50001 10.9594C6.74731 10.9905 6.00376 10.7852 5.37377 10.3721C4.74378 9.959 4.259 9.35897 3.98751 8.65625C3.82946 9.09503 3.74909 9.558 3.75001 10.0244C3.79349 10.9768 4.21248 11.8732 4.91527 12.5174C5.61806 13.1616 6.54743 13.5012 7.50001 13.4619C8.45258 13.5012 9.38195 13.1616 10.0847 12.5174C10.7875 11.8732 11.2065 10.9768 11.25 10.0244C11.2509 9.558 11.1706 9.09503 11.0125 8.65625C10.741 9.35897 10.2562 9.959 9.62625 10.3721C8.99626 10.7852 8.2527 10.9905 7.50001 10.9594Z" fill="#6788F3"/>
<path d="M8.75 5.96125C10 6.82688 11.25 8.14875 11.25 10.0238C11.2067 10.9762 10.7877 11.8727 10.0849 12.517C9.38208 13.1612 8.45262 13.5008 7.5 13.4613C6.54738 13.5008 5.61792 13.1612 4.91509 12.517C4.21226 11.8727 3.79332 10.9762 3.75 10.0238C3.75 8.14875 5 6.82688 6.25 5.96125L5.30062 4.06063C5.23919 3.94051 5.21827 3.80375 5.24099 3.67077C5.2637 3.53778 5.32884 3.41572 5.42667 3.32281C5.5245 3.22991 5.64976 3.17116 5.78374 3.15533C5.91771 3.1395 6.05322 3.16745 6.17 3.235C6.27904 3.29745 6.40716 3.31788 6.53022 3.29244C6.65327 3.267 6.76278 3.19745 6.83812 3.09688L6.96813 2.92375C7.03029 2.84071 7.11095 2.77329 7.20371 2.72686C7.29646 2.68043 7.39877 2.65625 7.5025 2.65625C7.60623 2.65625 7.70854 2.68043 7.80129 2.72686C7.89405 2.77329 7.97471 2.84071 8.03688 2.92375L8.16688 3.09688C8.24224 3.19761 8.35186 3.26727 8.47507 3.29271C8.59827 3.31816 8.72652 3.29763 8.83563 3.235C8.9524 3.16771 9.0878 3.13997 9.22162 3.15591C9.35545 3.17186 9.48054 3.23064 9.57823 3.32348C9.67593 3.41632 9.74099 3.53826 9.76372 3.6711C9.78646 3.80395 9.76564 3.94058 9.70438 4.06063L8.75 5.96125Z" stroke="#00303E" stroke-linecap="round" stroke-linejoin="round"/>
<path d="M5 5.96484H10" stroke="#00303E" stroke-linecap="round" stroke-linejoin="round"/>
<path fill-rule="evenodd" clip-rule="evenodd" d="M8.125 7.4375C8.81536 7.4375 9.375 8.02513 9.375 8.75C9.375 9.4584 8.84051 10.0357 8.17186 10.0616L8.125 10.0625H7.08333V10.5H7.91667C8.03173 10.5 8.125 10.5979 8.125 10.7188C8.125 10.8396 8.03173 10.9375 7.91667 10.9375H7.08333V11.5938C7.08333 11.7146 6.99006 11.8125 6.875 11.8125C6.75994 11.8125 6.66667 11.7146 6.66667 11.5938V10.9375H5.83333C5.71827 10.9375 5.625 10.8396 5.625 10.7188C5.625 10.5979 5.71827 10.5 5.83333 10.5H6.66667V10.0625H5.83333C5.71827 10.0625 5.625 9.96456 5.625 9.84375C5.625 9.73157 5.70543 9.63911 5.80904 9.62647L5.83333 9.625H6.66667V7.65625C6.66667 7.53544 6.75994 7.4375 6.875 7.4375H8.125ZM8.125 7.875H7.08333V9.625H8.125C8.58524 9.625 8.95833 9.23325 8.95833 8.75C8.95833 8.28139 8.60751 7.89883 8.16659 7.87607L8.125 7.875Z" fill="#00303E"/>
</svg>
