<svg width="15" height="16" viewBox="0 0 15 16" fill="none" xmlns="http://www.w3.org/2000/svg">
<g clip-path="url(#clip0_110_335565)">
<path d="M9.68828 8.87375C10.4484 8.87425 11.1916 8.64933 11.8238 8.22746C12.4561 7.80558 12.9491 7.20569 13.2404 6.50364C13.5317 5.80159 13.6084 5.02891 13.4605 4.28332C13.3127 3.53773 12.9472 2.85272 12.41 2.3149C11.8729 1.77708 11.1884 1.41061 10.443 1.26183C9.69759 1.11306 8.92482 1.18867 8.22239 1.47909C7.51996 1.76951 6.91943 2.2617 6.49673 2.89342C6.07403 3.52515 5.84815 4.26803 5.84766 5.02813C5.84733 5.53281 5.94641 6.03262 6.13924 6.49902C6.33207 6.96541 6.61488 7.38926 6.97151 7.74636C7.32815 8.10346 7.75163 8.38682 8.21777 8.58025C8.68392 8.77369 9.1836 8.87342 9.68828 8.87375Z" fill="#6788F3"/>
<path d="M9.68719 1.1875C8.93192 1.18695 8.19325 1.40909 7.56358 1.82616C6.9339 2.24322 6.44117 2.83668 6.14701 3.53232C5.85286 4.22795 5.77033 4.99488 5.90977 5.73716C6.0492 6.47945 6.40441 7.16416 6.93094 7.70563L12.3622 2.27438C11.6467 1.5767 10.6866 1.18661 9.68719 1.1875Z" fill="#DFF9FF"/>
<path d="M12.8125 11.1875L10.0494 12.1062H10.0425C10.0991 12.0018 10.125 11.8835 10.1171 11.765C10.1093 11.6465 10.0681 11.5326 9.9983 11.4365C9.92849 11.3404 9.83291 11.266 9.72261 11.222C9.61232 11.1779 9.4918 11.166 9.375 11.1875H7.5C6.75925 10.4231 5.7513 9.97507 4.6875 9.9375H2.8125L0.3125 11.1875V14.9375L2.8125 13.375C9.5175 15.6106 7.04437 15.6331 14.6875 11.8125C14.4767 11.5288 14.1837 11.3166 13.8484 11.2048C13.513 11.0931 13.1514 11.087 12.8125 11.1875Z" fill="#DFF9FF"/>
<path d="M9.68828 8.87375C10.4484 8.87425 11.1916 8.64933 11.8238 8.22746C12.4561 7.80558 12.9491 7.20569 13.2404 6.50364C13.5317 5.80159 13.6084 5.02891 13.4605 4.28332C13.3127 3.53773 12.9472 2.85272 12.41 2.3149C11.8729 1.77708 11.1884 1.41061 10.443 1.26183C9.69759 1.11306 8.92482 1.18867 8.22239 1.47909C7.51996 1.76951 6.91943 2.2617 6.49673 2.89342C6.07403 3.52515 5.84815 4.26803 5.84766 5.02813C5.84733 5.53281 5.94641 6.03262 6.13924 6.49902C6.33207 6.96541 6.61488 7.38926 6.97151 7.74636C7.32815 8.10346 7.75163 8.38682 8.21777 8.58025C8.68392 8.77369 9.1836 8.87342 9.68828 8.87375Z" stroke="#00303E" stroke-linecap="round" stroke-linejoin="round"/>
<path d="M10.0494 12.1071L12.8125 11.1884C13.1514 11.0879 13.513 11.0939 13.8484 11.2057C14.1837 11.3175 14.4767 11.5296 14.6875 11.8134C7.04437 15.634 9.5175 15.6115 2.8125 13.3759L0.3125 14.9384" stroke="#00303E" stroke-linecap="round" stroke-linejoin="round"/>
<path d="M5.9375 12.4375H9.375C9.46643 12.4539 9.56035 12.4501 9.65014 12.4263C9.73993 12.4024 9.82339 12.3592 9.89465 12.2996C9.9659 12.24 10.0232 12.1655 10.0625 12.0813C10.1019 11.9972 10.1223 11.9054 10.1223 11.8125C10.1223 11.7196 10.1019 11.6278 10.0625 11.5437C10.0232 11.4595 9.9659 11.385 9.89465 11.3254C9.82339 11.2658 9.73993 11.2226 9.65014 11.1987C9.56035 11.1749 9.46643 11.1711 9.375 11.1875H7.5C6.75925 10.4231 5.75131 9.97507 4.6875 9.9375H2.8125L0.3125 11.1875" stroke="#00303E" stroke-linecap="round" stroke-linejoin="round"/>
<path fill-rule="evenodd" clip-rule="evenodd" d="M10.4167 2.4375C11.2221 2.4375 11.875 3.10907 11.875 3.9375C11.875 4.7471 11.2514 5.40689 10.4713 5.43647L10.4167 5.4375H9.20139V5.9375H10.1736C10.3078 5.9375 10.4167 6.04943 10.4167 6.1875C10.4167 6.32557 10.3078 6.4375 10.1736 6.4375H9.20139V7.1875C9.20139 7.32557 9.09257 7.4375 8.95833 7.4375C8.8241 7.4375 8.71528 7.32557 8.71528 7.1875V6.4375H7.74306C7.60882 6.4375 7.5 6.32557 7.5 6.1875C7.5 6.04943 7.60882 5.9375 7.74306 5.9375H8.71528V5.4375H7.74306C7.60882 5.4375 7.5 5.32557 7.5 5.1875C7.5 5.05929 7.59383 4.95362 7.71471 4.93918L7.74306 4.9375H8.71528V2.6875C8.71528 2.54943 8.8241 2.4375 8.95833 2.4375H10.4167ZM10.4167 2.9375H9.20139V4.9375H10.4167C10.9536 4.9375 11.3889 4.48978 11.3889 3.9375C11.3889 3.40195 10.9796 2.96473 10.4652 2.93872L10.4167 2.9375Z" fill="#00303E"/>
</g>
<defs>
<clipPath id="clip0_110_335565">
<rect width="15" height="15" fill="white" transform="translate(0 0.5625)"/>
</clipPath>
</defs>
</svg>
