<svg width="15" height="16" viewBox="0 0 15 16" fill="none" xmlns="http://www.w3.org/2000/svg">
<g clip-path="url(#clip0_110_335531)">
<path d="M10.3125 0.875H2.5C2.00272 0.875 1.52581 1.07254 1.17417 1.42417C0.822544 1.77581 0.625 2.25272 0.625 2.75V13.375C0.625 13.4579 0.657924 13.5374 0.716529 13.596C0.775134 13.6546 0.85462 13.6875 0.9375 13.6875H8.4375C8.52038 13.6875 8.59987 13.6546 8.65847 13.596C8.71708 13.5374 8.75 13.4579 8.75 13.375V2.75" fill="#DFF9FF"/>
<path d="M9.8125 0.875H2.5C2.00272 0.875 1.52581 1.07254 1.17417 1.42417C0.822544 1.77581 0.625 2.25272 0.625 2.75V10.0625L9.8125 0.875Z" fill="white"/>
<path d="M10.3125 0.875H2.5C2.00272 0.875 1.52581 1.07254 1.17417 1.42417C0.822544 1.77581 0.625 2.25272 0.625 2.75V13.375C0.625 13.4579 0.657924 13.5374 0.716529 13.596C0.775134 13.6546 0.85462 13.6875 0.9375 13.6875H8.4375C8.52038 13.6875 8.59987 13.6546 8.65847 13.596C8.71708 13.5374 8.75 13.4579 8.75 13.375V2.75" stroke="#00303E" stroke-linecap="round" stroke-linejoin="round"/>
<path d="M10.0375 13.9609H10.0312" stroke="#00303E" stroke-linecap="round" stroke-linejoin="round"/>
<path d="M12.6282 10.4942C12.5437 10.6038 12.498 10.7384 12.4982 10.8767V13.4711L10.0357 13.9642L10.7357 13.4017C10.8221 13.3309 10.8771 13.2288 10.8888 13.1177C10.9004 13.0066 10.8679 12.8953 10.7982 12.808L9.59819 11.483L9.15444 11.6642C8.98386 11.735 8.79319 11.7403 8.61894 11.6792C8.44469 11.618 8.29911 11.4948 8.21009 11.333C8.12107 11.1712 8.09487 10.9823 8.13649 10.8024C8.17812 10.6225 8.28465 10.4642 8.43569 10.358C8.46884 10.3335 8.50445 10.3126 8.54194 10.2955L9.69819 9.73299C9.82446 9.67025 9.96224 9.634 10.103 9.62647C10.2438 9.61895 10.3847 9.64031 10.5169 9.68924L12.6282 10.4942Z" fill="#DFF9FF" stroke="#00303E" stroke-linecap="round" stroke-linejoin="round"/>
<path d="M10.3102 11.1875L9.59766 11.4813" stroke="#00303E" stroke-linecap="round" stroke-linejoin="round"/>
<path d="M10.7362 13.4005L10.0363 13.963H10.03L8.54875 15.1574C8.46242 15.2272 8.35246 15.261 8.24183 15.2517C8.1312 15.2423 8.02844 15.1906 7.955 15.1074L6.5 14.0018H5.625V10.8768L7.40625 10.1211C7.51369 10.0788 7.62828 10.0576 7.74375 10.0586C7.93899 10.0584 8.12931 10.1198 8.2875 10.2343L8.4375 10.3593C8.28646 10.4655 8.17993 10.6237 8.13831 10.8036C8.09668 10.9835 8.12289 11.1725 8.21191 11.3343C8.30093 11.496 8.4465 11.6193 8.62075 11.6804C8.795 11.7415 8.98567 11.7362 9.15625 11.6655L9.6 11.4843L10.8 12.8093C10.8688 12.8966 10.9007 13.0074 10.8888 13.1179C10.8768 13.2284 10.8221 13.3299 10.7362 13.4005Z" fill="#DFF9FF" stroke="#00303E" stroke-linecap="round" stroke-linejoin="round"/>
<path d="M5.625 10.875V14C5.625 14.1658 5.55915 14.3247 5.44194 14.4419C5.32473 14.5592 5.16576 14.625 5 14.625H3.75V10.25H5C5.16576 10.25 5.32473 10.3158 5.44194 10.4331C5.55915 10.5503 5.625 10.7092 5.625 10.875Z" fill="#6788F3" stroke="#00303E" stroke-linecap="round" stroke-linejoin="round"/>
<path d="M14.375 10.25V14.625H13.125C12.9592 14.625 12.8003 14.5592 12.6831 14.4419C12.5658 14.3247 12.5 14.1658 12.5 14V10.875C12.5006 10.7371 12.5467 10.6033 12.6312 10.4944C12.6889 10.4181 12.7636 10.3564 12.8493 10.3139C12.935 10.2715 13.0294 10.2496 13.125 10.25H14.375Z" fill="#6788F3" stroke="#00303E" stroke-linecap="round" stroke-linejoin="round"/>
<path d="M2.5 3.6875H6.875" stroke="#00303E" stroke-linecap="round" stroke-linejoin="round"/>
<path d="M2.5 5.5625H6.875" stroke="#00303E" stroke-linecap="round" stroke-linejoin="round"/>
<path d="M2.5 7.4375H4.6875" stroke="#00303E" stroke-linecap="round" stroke-linejoin="round"/>
<path d="M8.75 2.75V2.4375C8.75 2.0231 8.91462 1.62567 9.20765 1.33265C9.50067 1.03962 9.8981 0.875 10.3125 0.875C11.175 0.875 11.875 1.57437 11.875 2.75H8.75Z" fill="#DFF9FF" stroke="#00303E" stroke-linecap="round" stroke-linejoin="round"/>
</g>
<defs>
<clipPath id="clip0_110_335531">
<rect width="15" height="15" fill="white" transform="translate(0 0.5625)"/>
</clipPath>
</defs>
</svg>
