<svg width="20" height="20" viewBox="0 0 20 20" fill="none" xmlns="http://www.w3.org/2000/svg">
<g clip-path="url(#clip0_687_58079)">
<path d="M11.2759 6.95984C10.7989 7.29992 10.2151 7.49996 9.58464 7.49996C7.97381 7.49996 6.66797 6.19412 6.66797 4.58329C6.66797 2.97246 7.97381 1.66663 9.58464 1.66663C10.6288 1.66663 11.5448 2.21531 12.0601 3.04008M5.0013 16.7393H7.17654C7.46016 16.7393 7.74204 16.773 8.01698 16.8405L10.3154 17.399C10.8141 17.5205 11.3336 17.5323 11.8375 17.4345L14.3788 16.9401C15.0501 16.8093 15.6676 16.4878 16.1516 16.017L17.9495 14.2681C18.463 13.7694 18.463 12.9603 17.9495 12.4608C17.4873 12.0112 16.7552 11.9605 16.2322 12.3419L14.1368 13.8707C13.8367 14.09 13.4716 14.2082 13.096 14.2082H11.0726L12.3605 14.2081C13.0865 14.2081 13.6745 13.6361 13.6745 12.9299V12.6742C13.6745 12.0879 13.2643 11.5766 12.6797 11.4349L10.6918 10.9514C10.3683 10.8729 10.037 10.8333 9.70392 10.8333C8.89991 10.8333 7.44455 11.499 7.44455 11.499L5.0013 12.5207M16.668 5.41663C16.668 7.02746 15.3621 8.33329 13.7513 8.33329C12.1405 8.33329 10.8346 7.02746 10.8346 5.41663C10.8346 3.8058 12.1405 2.49996 13.7513 2.49996C15.3621 2.49996 16.668 3.8058 16.668 5.41663ZM1.66797 12.1666L1.66797 17C1.66797 17.4667 1.66797 17.7 1.7588 17.8783C1.83869 18.0351 1.96617 18.1626 2.12298 18.2425C2.30124 18.3333 2.53459 18.3333 3.0013 18.3333H3.66797C4.13468 18.3333 4.36803 18.3333 4.54629 18.2425C4.7031 18.1626 4.83058 18.0351 4.91047 17.8783C5.0013 17.7 5.0013 17.4667 5.0013 17V12.1666C5.0013 11.6999 5.0013 11.4666 4.91047 11.2883C4.83058 11.1315 4.7031 11.004 4.54629 10.9241C4.36803 10.8333 4.13468 10.8333 3.66797 10.8333L3.0013 10.8333C2.53459 10.8333 2.30124 10.8333 2.12298 10.9241C1.96618 11.004 1.83869 11.1315 1.7588 11.2883C1.66797 11.4666 1.66797 11.6999 1.66797 12.1666Z" stroke="#D0D0D0" stroke-width="1.5" stroke-linecap="round" stroke-linejoin="round"/>
</g>
<defs>
<clipPath id="clip0_687_58079">
<rect width="20" height="20" fill="white"/>
</clipPath>
</defs>
</svg>
