<svg width="20" height="20" viewBox="0 0 20 20" fill="none" xmlns="http://www.w3.org/2000/svg">
<path d="M4.16791 10.8333C4.16791 8.07191 6.40649 5.83333 9.16791 5.83333M4.16791 10.8333C4.16791 12.207 4.72185 13.4513 5.61853 14.355C5.70501 14.4421 5.74825 14.4857 5.77377 14.5276C5.79812 14.5676 5.8123 14.602 5.82318 14.6475C5.83458 14.6953 5.83458 14.7496 5.83458 14.8582V16.8333C5.83458 17.0667 5.83458 17.1834 5.87999 17.2725C5.91994 17.3509 5.98368 17.4146 6.06208 17.4546C6.15121 17.5 6.26789 17.5 6.50124 17.5H8.08458C8.31793 17.5 8.43461 17.5 8.52374 17.4546C8.60214 17.4146 8.66588 17.3509 8.70583 17.2725C8.75124 17.1834 8.75124 17.0667 8.75124 16.8333V16.5C8.75124 16.2666 8.75124 16.15 8.79666 16.0608C8.83661 15.9824 8.90035 15.9187 8.97875 15.8787C9.06788 15.8333 9.18456 15.8333 9.41791 15.8333H10.5846C10.8179 15.8333 10.9346 15.8333 11.0237 15.8787C11.1021 15.9187 11.1659 15.9824 11.2058 16.0608C11.2512 16.15 11.2512 16.2666 11.2512 16.5V16.8333C11.2512 17.0667 11.2512 17.1834 11.2967 17.2725C11.3366 17.3509 11.4003 17.4146 11.4787 17.4546C11.5679 17.5 11.6846 17.5 11.9179 17.5H13.5013C13.7347 17.5 13.8513 17.5 13.9405 17.4546C14.0189 17.4146 14.0826 17.3509 14.1226 17.2725C14.168 17.1834 14.168 17.0667 14.168 16.8333V16.0203C14.168 15.8519 14.168 15.7677 14.1919 15.7001C14.2149 15.6353 14.2439 15.59 14.2929 15.5419C14.3441 15.4917 14.4309 15.4514 14.6044 15.3709C15.4229 14.9908 16.1213 14.3959 16.6272 13.6585C16.7162 13.5288 16.7607 13.464 16.8082 13.4257C16.8536 13.389 16.8944 13.3676 16.9503 13.3508C17.0087 13.3333 17.0781 13.3333 17.2169 13.3333H17.668C17.9013 13.3333 18.018 13.3333 18.1071 13.2879C18.1855 13.248 18.2493 13.1842 18.2892 13.1058C18.3346 13.0167 18.3346 12.9 18.3346 12.6667V9.82146C18.3346 9.5993 18.3346 9.48822 18.2934 9.40253C18.2524 9.3175 18.1838 9.24889 18.0988 9.20794C18.0131 9.16667 17.902 9.16667 17.6798 9.16667C17.519 9.16667 17.4386 9.16667 17.3739 9.14484C17.304 9.1213 17.2551 9.08999 17.2044 9.03648C17.1574 8.98685 17.1191 8.90387 17.0424 8.73789C16.7961 8.20519 16.4589 7.72314 16.0507 7.3117C15.9642 7.22455 15.921 7.18097 15.8954 7.13906C15.8711 7.09908 15.8569 7.06466 15.846 7.01912C15.8346 6.97139 15.8346 6.91709 15.8346 6.80848V5.88382C15.8346 5.58378 15.8346 5.43376 15.7722 5.33292C15.7174 5.24459 15.6317 5.1799 15.5317 5.15154C15.4176 5.11916 15.2733 5.16037 14.9848 5.2428L13.0077 5.80768C12.9741 5.81728 12.9573 5.82208 12.9402 5.82545C12.925 5.82845 12.9097 5.83059 12.8943 5.83188C12.877 5.83333 12.8594 5.83333 12.8241 5.83333H9.16791M4.16791 10.8333H3.33464C2.41416 10.8333 1.66797 10.0871 1.66797 9.16667C1.66797 8.54976 2.00313 8.01115 2.5013 7.72297M9.16791 5.83333H12.4718C12.4912 5.69725 12.5013 5.55813 12.5013 5.41667C12.5013 3.80584 11.1955 2.5 9.58464 2.5C7.97381 2.5 6.66797 3.80584 6.66797 5.41667C6.66797 5.76434 6.7288 6.0978 6.8404 6.40699C7.53559 6.04067 8.32751 5.83333 9.16791 5.83333Z" stroke="#D0D0D0" stroke-width="1.5" stroke-linecap="round" stroke-linejoin="round"/>
</svg>
